<svg width="30" height="30" viewBox="0 0 30 30" fill="none" xmlns="http://www.w3.org/2000/svg">
<g clip-path="url(#clip0_174_2582)">
<path d="M0.152832 0.227539H29.8734V29.8513H0.152832V0.227539Z" fill="white"/>
<path d="M0.000976562 0H29.9994V30H0.000976562V0Z" fill="#008061"/>
<path d="M18.4968 28.0261V29.2271H11.3018V28.0238H5.85742C5.32541 28.0238 4.89208 27.4515 4.89208 26.7459L2.61377 3.03182C2.61377 2.32563 3.14589 1.75293 3.80232 1.75293H25.8033C26.4556 1.75293 26.9875 2.32563 26.9875 3.0317L24.7351 26.7459C24.7351 27.4515 24.3016 28.0238 23.7697 28.0238L18.4968 28.0261Z" fill="white"/>
<path d="M6.62109 5.22559H21.35C19.8998 5.78515 15.4851 8.86161 14.3824 10.93H6.63397L6.62109 5.22559Z" fill="#F5821F"/>
<path d="M18.3598 21.5703C18.1496 23.6361 18.141 26.1518 18.141 28.7941H11.7568C11.7568 26.1518 11.8641 23.6361 12.0743 21.5703H18.3598Z" fill="#ED1B2D"/>
<path d="M8.4829 18.5852V19.3859H7.46179V20.1868H8.4829V21.1045H6.14893V16.834H8.4829V17.7852H7.46179V18.5852H8.4829ZM13.9102 18.5852V19.3859H12.8934V20.1868H13.9102V21.1045H11.5806V16.834H13.9102V17.7852H12.8934V18.5852H13.9102ZM19.891 18.5852V19.3859H18.8699V20.1868H19.891V21.1045H17.557V16.834H19.891V17.7852H18.8699V18.5852H19.891ZM10.2334 16.834V20.1868H11.2544V21.1045H8.92053V16.834H10.2334ZM15.7939 19.7202L15.296 16.8341H14.1505L14.8026 21.1045H16.4887L17.2781 16.834H16.3043L15.7939 19.7202ZM20.4444 16.834H21.7059V21.1041H20.4444V16.834Z" fill="#008061"/>
<path d="M21.7061 18.1018C21.7748 17.6342 22.4184 17.7596 22.4184 18.0267V21.1046H23.6839V17.4851C23.6839 16.7176 22.6328 16.409 21.7147 17.0846L21.7061 18.1019V18.1018Z" fill="#008061"/>
<path d="M18.9517 16.2337C19.0804 14.5994 21.2557 11.9305 23.3623 11.2298V4.9248C17.5659 7.59377 13.799 11.6303 12.9839 16.2178L18.9517 16.2337Z" fill="#ED1B2D"/>
</g>
<defs>
<clipPath id="clip0_174_2582">
<rect width="30" height="30" fill="white"/>
</clipPath>
</defs>
</svg>
