<svg width="22" height="25" viewBox="0 0 22 25" fill="none" xmlns="http://www.w3.org/2000/svg">
<path d="M8.29063 0.25C7.66719 0.25 7.10469 0.639063 6.88437 1.225L6.125 3.25H1.625C1.00156 3.25 0.5 3.75156 0.5 4.375C0.5 4.99844 1.00156 5.5 1.625 5.5H20.375C20.9984 5.5 21.5 4.99844 21.5 4.375C21.5 3.75156 20.9984 3.25 20.375 3.25H15.875L15.1156 1.225C14.8953 0.639063 14.3375 0.25 13.7094 0.25H8.29063ZM2 7.75V22C2 23.6547 3.34531 25 5 25H17C18.6547 25 20 23.6547 20 22V7.75H17.75V22C17.75 22.4125 17.4125 22.75 17 22.75H5C4.5875 22.75 4.25 22.4125 4.25 22V7.75H2ZM9.5 11.125C9.5 10.5016 8.99844 10 8.375 10C7.75156 10 7.25 10.5016 7.25 11.125V19.375C7.25 19.9984 7.75156 20.5 8.375 20.5C8.99844 20.5 9.5 19.9984 9.5 19.375V11.125ZM14.75 11.125C14.75 10.5016 14.2484 10 13.625 10C13.0016 10 12.5 10.5016 12.5 11.125V19.375C12.5 19.9984 13.0016 20.5 13.625 20.5C14.2484 20.5 14.75 19.9984 14.75 19.375V11.125Z" fill="#C1C1C1"/>
</svg>
