<svg width="30" height="30" viewBox="0 0 30 30" fill="none" xmlns="http://www.w3.org/2000/svg">
<g clip-path="url(#clip0_174_2570)">
<path d="M29.9962 14.9808C29.9962 23.2913 23.273 29.997 14.994 29.997C6.71743 29.997 0.00390625 23.291 0.00390625 14.9808C0.00390625 6.70016 6.71759 0.00488281 14.994 0.00488281C23.273 0.00488281 29.9962 6.70016 29.9962 14.9808Z" fill="#FCC707"/>
<path d="M14.9943 0.000976562C11.7485 0.000976562 8.75921 1.00628 6.30805 2.78557L6.51395 3.45355C8.904 1.76693 11.8239 0.746141 14.9943 0.746141C19.6358 0.746141 23.7651 2.91969 26.4267 6.23267L26.736 5.67928C23.9946 2.21503 19.7547 0.000976562 14.9943 0.000976562ZM28.6424 10.1939C29.1919 11.709 29.484 13.3172 29.484 14.9805C29.484 22.86 22.9983 29.2318 14.9943 29.2318C7.00074 29.2318 0.507158 22.86 0.507158 14.9805C0.507158 12.1108 1.37432 9.42154 2.88932 7.192L2.53311 6.62646C0.937579 9.01441 0 11.9196 0 14.9805C0 23.2924 6.71653 29.9981 14.9943 29.9981C23.2756 29.9981 30 23.2924 30 14.9805C30 13.1705 29.6716 11.4405 29.0801 9.81103L28.6424 10.1939Z" fill="#231F20"/>
<path d="M13.3673 25.7175L14.7366 25.0204L13.9602 19.6006L11.8618 22.3659L13.3673 25.7175ZM13.9799 2.40918L10.5022 5.79148H6.66247L3.81247 2.53329C3.81247 2.53329 3.70353 4.93221 4.30068 7.92001C4.78021 10.4385 5.90537 11.3233 5.90537 11.3233H8.12142L10.8285 9.58305L10.8014 10.2925C10.7442 11.5186 10.5964 12.5258 10.3149 13.4301C10.4441 13.4316 10.9763 13.383 11.765 12.5892C12.9279 11.5093 13.2697 9.38938 13.6613 7.35471C14.0344 5.31313 13.9799 2.40918 13.9799 2.40918ZM7.80974 8.89482C7.71626 9.11065 7.51558 9.20618 7.35721 9.05443C7.03637 8.78572 6.41932 8.64707 6.10384 8.72616C5.92368 8.76856 5.75111 8.58561 5.72126 8.31237C5.70744 8.18102 5.72842 8.04674 5.77968 7.93855C5.83094 7.83037 5.90837 7.75696 5.99521 7.7342C6.49305 7.6127 7.24747 7.82448 7.68926 8.21064C7.84874 8.35072 7.90511 8.65779 7.80974 8.89482ZM11.495 8.31237C11.4659 8.58561 11.3035 8.76856 11.1228 8.72616C10.8235 8.64707 10.1944 8.78572 9.85874 9.05443C9.69863 9.20618 9.49747 9.11065 9.39705 8.89482C9.30595 8.65779 9.36074 8.35072 9.52558 8.21064C9.96784 7.82448 10.7327 7.6127 11.2301 7.7342C11.4097 7.78232 11.5252 8.04103 11.495 8.31237Z" fill="#231F20"/>
<path d="M28.7321 8.30793L28.2917 6.80664L21.3769 10.6983H13.1872C12.9083 11.6083 12.5209 12.3897 11.9152 12.9466C11.5141 13.3425 11.1789 13.5627 10.926 13.6882C10.6934 13.8026 10.4513 13.875 10.1611 13.8836C10.0754 14.1058 9.98334 14.3238 9.87992 14.521C9.1915 15.908 8.2056 16.6822 7.04539 16.6822C6.34039 16.6822 5.67076 16.3018 5.10739 15.6567L4.55713 15.8787L4.57181 16.7618L5.60981 17.0717L5.12855 17.268L5.17844 18.1609L6.36629 18.6921V20.3068L5.31218 21.9844L5.69492 22.6576L6.10371 22.488L5.90318 23.043L6.29413 23.7444L8.59197 21.9608L7.50329 24.3671L8.9245 25.6875L14.1615 18.7779H17.1712L15.9841 24.7859L17.2283 25.7247L20.117 20.4885L23.5448 25.2666L24.6169 24.2599L22.4521 13.9448L28.7321 8.30793ZM9.2316 20.4857V16.6865L10.1035 18.5025L9.2316 20.4857Z" fill="#231F20"/>
<path d="M8.23661 11.8007H5.80061L3.54492 9.44824C3.54492 13.2117 5.11597 16.2605 7.04545 16.2605C8.06592 16.2605 9.01092 15.6256 9.65576 14.287C10.2384 13.0697 10.4669 11.734 10.5215 10.2699L8.23661 11.8007ZM6.43818 14.1277C6.36934 14.2963 6.21982 14.3487 6.10582 14.2434C5.91966 14.0681 5.56345 13.9881 5.36418 13.9881C5.22918 13.9881 5.13476 13.823 5.13476 13.6205C5.13476 13.4156 5.22918 13.2496 5.36418 13.2496C5.5805 13.2496 6.05703 13.3275 6.36461 13.6164C6.47024 13.7244 6.50403 13.9516 6.43818 14.1277ZM8.5055 13.9764C8.31445 13.9764 7.95097 14.0562 7.7664 14.2308C7.65019 14.3368 7.50034 14.2851 7.43055 14.1131C7.39613 14.0302 7.38481 13.9301 7.39906 13.8346C7.41331 13.7391 7.45199 13.656 7.50666 13.6033C7.81376 13.3141 8.2974 13.2393 8.5055 13.2393C8.63229 13.2393 8.74234 13.4054 8.74234 13.6041C8.74234 13.8113 8.63229 13.9764 8.5055 13.9764Z" fill="#231F20"/>
</g>
<defs>
<clipPath id="clip0_174_2570">
<rect width="30" height="30" fill="white"/>
</clipPath>
</defs>
</svg>
