<svg width="36" height="30" viewBox="0 0 36 30" fill="none" xmlns="http://www.w3.org/2000/svg">
<path d="M4 3C3.45 3 3 3.45 3 4V22C3 22.55 3.45 23 4 23H4.20625C4.85625 20.6938 6.98125 19 9.5 19C12.0188 19 14.1375 20.6938 14.7938 23H21.2062C21.5125 21.9125 22.15 20.9563 23 20.2563V4C23 3.45 22.55 3 22 3H4ZM4.20625 26H4C1.79375 26 0 24.2062 0 22V4C0 1.79375 1.79375 0 4 0H22C24.2062 0 26 1.79375 26 4V6H29.4625C30.525 6 31.5438 6.41875 32.2938 7.16875L34.8312 9.70625C35.5812 10.4563 36 11.475 36 12.5375V22C36 24.2062 34.2062 26 32 26H31.7938C31.1438 28.3062 29.0187 30 26.5 30C23.9813 30 21.8625 28.3062 21.2062 26H14.7938C14.1438 28.3062 12.0188 30 9.5 30C6.98125 30 4.8625 28.3062 4.20625 26ZM26 14H33V12.5375C33 12.275 32.8937 12.0187 32.7062 11.8312L30.1688 9.29375C29.9813 9.10625 29.725 9 29.4625 9H26V14ZM26 17V19.025C26.1625 19.0125 26.3312 19 26.5 19C29.0187 19 31.1375 20.6938 31.7938 23H32C32.55 23 33 22.55 33 22V17H26ZM9.5 27C10.8813 27 12 25.8813 12 24.5C12 23.1187 10.8813 22 9.5 22C8.11875 22 7 23.1187 7 24.5C7 25.8813 8.11875 27 9.5 27ZM26.5 27C27.8813 27 29 25.8813 29 24.5C29 23.1187 27.8813 22 26.5 22C25.1187 22 24 23.1187 24 24.5C24 25.8813 25.1187 27 26.5 27Z" fill="#DE1A10"/>
</svg>
