<svg width="40" height="40" viewBox="0 0 40 40" fill="none" xmlns="http://www.w3.org/2000/svg">
<g clip-path="url(#clip0_174_2597)">
<path fill-rule="evenodd" clip-rule="evenodd" d="M0 0H40V40H0V0Z" fill="white"/>
<path fill-rule="evenodd" clip-rule="evenodd" d="M1.76465 17.5591H38.2352V15.1562H1.76465V17.5591Z" fill="#54A857"/>
<path fill-rule="evenodd" clip-rule="evenodd" d="M5.86226 23.1053H6.73196L6.73279 21.1783H8.60936V20.3078H6.73196V19.4559H8.62576V18.585H5.86226V23.1053ZM11.2743 20.9905C11.2743 20.7938 11.3033 20.3887 10.7916 20.1032C10.24 19.7952 9.35933 20.0355 9.10325 20.1378V20.8195C9.47554 20.5881 10.0059 20.5149 10.3143 20.6662C10.6048 20.8085 10.5833 21.0519 10.5268 21.148C10.4585 21.131 10.2081 21.0389 9.7368 21.0837C9.15783 21.1401 8.74778 21.5745 8.82144 22.3294C8.88536 22.9766 9.57245 23.1051 9.87127 23.1051C10.2801 23.1051 10.5988 22.8777 10.5988 22.8777C10.6154 22.9746 10.636 23.0451 10.6835 23.1051H11.4517C11.3324 22.975 11.2778 22.6961 11.2778 22.5857C11.278 22.4753 11.2743 21.1862 11.2743 20.9905ZM10.0533 22.4967C9.76336 22.5095 9.57514 22.3095 9.57514 22.036C9.57514 21.7635 9.83101 21.5882 10.0641 21.5882C10.3658 21.5882 10.5187 21.7013 10.5187 21.7013C10.5187 21.7013 10.5249 22.2022 10.5359 22.2929C10.4222 22.4006 10.3261 22.485 10.0533 22.4967ZM29.9545 20.9905C29.9545 20.7938 29.9846 20.3887 29.473 20.1032C28.9206 19.7952 28.0404 20.0355 27.7845 20.1378V20.8195C28.157 20.5881 28.6872 20.5149 28.9951 20.6662C29.2852 20.8085 29.2647 21.0519 29.2083 21.148C29.1394 21.131 28.8889 21.0389 28.4178 21.0837C27.8378 21.1401 27.428 21.5745 27.5027 22.3294C27.5668 22.9766 28.2533 23.1051 28.5521 23.1051C28.9615 23.1051 29.2792 22.8777 29.2792 22.8777C29.2975 22.9746 29.317 23.0451 29.3656 23.1051H30.1323C30.0128 22.975 29.9584 22.6961 29.9584 22.5857C29.9584 22.4753 29.9545 21.1862 29.9545 20.9905ZM28.7341 22.4967C28.444 22.5095 28.2562 22.3095 28.2562 22.036C28.2562 21.7635 28.5112 21.5882 28.7447 21.5882C29.0462 21.5882 29.1997 21.7013 29.1997 21.7013C29.1997 21.7013 29.2049 22.2022 29.2172 22.2929C29.1028 22.4006 29.0072 22.485 28.7341 22.4967ZM15.253 19.9822C14.5956 19.9648 14.3061 20.3418 14.3061 20.3418C14.3061 20.3418 14.0496 19.9841 13.4449 19.9841C13.0102 19.9841 12.7383 20.248 12.7383 20.248V20.0181H11.918L11.9195 23.1051H12.7373V20.9988C12.7782 20.7454 13.3096 20.6323 13.4717 20.7938C13.6335 20.9565 13.6408 21.0077 13.6408 21.2213V23.1053H14.469V20.9907C14.469 20.8822 14.8405 20.6292 15.1245 20.7691C15.3785 20.8934 15.3897 21.0162 15.3897 21.1951V23.1055H16.1827V21.0758C16.1825 20.8712 16.2262 20.006 15.253 19.9822ZM16.8395 23.1053H17.6241V19.9865H16.8395V23.1053ZM18.3049 23.1053H19.0891V18.5879H18.3049V23.1053ZM21.0587 21.7579L20.3309 19.9822H19.5069L20.6694 22.8252L20.2668 23.9198L21.0863 23.9246L22.5028 19.9828H21.7011L21.0587 21.7579ZM24.9469 19.9789L23.7649 18.5875H22.9296V23.1053H23.7147V19.8469L24.9469 21.3041L26.1704 19.8527V23.1053H26.96V18.5875H26.1206L24.9469 19.9789ZM31.3316 20.3511V19.9841H30.5453V23.1051H31.3299V21.11C31.3299 21.11 31.824 20.4452 32.4299 20.9054V20.0695C32.1398 19.9502 31.7649 19.8649 31.3316 20.3511ZM34.6138 20.6836V19.9828H33.9062V18.8072L33.1621 19.1141V19.9793H32.6943V20.6836H33.1637V22.0823C33.1637 22.4836 33.3756 22.8895 33.7441 23.0204C34.061 23.1325 34.2455 23.1422 34.6058 23.0327V22.3178C34.4501 22.3587 34.0585 22.4259 33.9531 22.1308C33.8859 21.9416 33.9072 21.8772 33.9072 21.6556V20.6836H34.6138ZM17.2362 18.5665C17.1693 18.5652 17.1028 18.5772 17.0406 18.6018C16.9784 18.6265 16.9218 18.6633 16.874 18.7101C16.8262 18.757 16.7882 18.8129 16.7623 18.8746C16.7363 18.9363 16.723 19.0025 16.723 19.0694C16.723 19.1363 16.7363 19.2026 16.7623 19.2643C16.7882 19.326 16.8262 19.3819 16.874 19.4287C16.9218 19.4755 16.9784 19.5124 17.0406 19.537C17.1028 19.5617 17.1693 19.5737 17.2362 19.5723C17.3678 19.5697 17.4932 19.5155 17.5853 19.4215C17.6774 19.3275 17.729 19.2011 17.729 19.0694C17.729 18.9378 17.6774 18.8114 17.5853 18.7174C17.4932 18.6233 17.3678 18.5692 17.2362 18.5665ZM38.2352 24.1113V24.8439H1.76465V24.1113H38.2352Z" fill="#37A8DC"/>
</g>
<defs>
<clipPath id="clip0_174_2597">
<rect width="40" height="40" fill="white"/>
</clipPath>
</defs>
</svg>
