<svg width="34" height="28" viewBox="0 0 34 28" fill="none" xmlns="http://www.w3.org/2000/svg">
<path d="M0.34375 9.31875L3.89375 2.2125C4.575 0.85625 5.95625 0 7.475 0H26.5312C28.0438 0 29.4313 0.85625 30.1063 2.2125L33.6562 9.31875C33.8812 9.76875 34 10.2625 34 10.7687C34 12.475 32.675 13.875 31 13.9937V26C31 27.1063 30.1063 28 29 28C27.8937 28 27 27.1063 27 26V14H21V25C21 26.6562 19.6562 28 18 28H6C4.34375 28 3 26.6562 3 25V13.9937C1.325 13.875 0 12.475 0 10.7687C0 10.2687 0.11875 9.76875 0.34375 9.31875ZM7 14V21C7 21.55 7.45 22 8 22H16C16.55 22 17 21.55 17 21V14H7Z" fill="#D5140B"/>
</svg>
