<svg width="38" height="15" viewBox="0 0 38 15" fill="none" xmlns="http://www.w3.org/2000/svg">
<path d="M17.9312 0.48147C15.8175 0.787177 14.3034 1.61938 13.3237 3.02053C12.8487 3.70837 12.4094 4.88874 12.2609 5.88229C12.1481 6.66354 12.1422 8.2685 12.255 9.05824C12.5994 11.5888 14.0303 13.3976 16.2687 14.1364C16.4825 14.2043 16.7912 14.3062 16.9516 14.3656C17.5216 14.5525 19.4037 14.6459 20.6803 14.544C21.3394 14.493 21.9866 14.4166 22.1172 14.3741C22.2478 14.3317 22.5447 14.2468 22.7703 14.1958C23.7737 13.9495 24.0409 13.8646 24.1597 13.7797C24.2784 13.6863 24.2844 13.6184 24.2844 12.3701C24.2844 11.6313 24.2606 11.0453 24.225 11.0114C24.1953 10.9859 24.0112 11.0793 23.8153 11.2237C23.6194 11.3595 23.4234 11.4784 23.3819 11.4784C23.3403 11.4784 23.2334 11.5294 23.1503 11.5973C22.9959 11.7077 22.6516 11.869 22.0281 12.1068C21.6066 12.2682 20.4487 12.4974 20.045 12.4974C19.6353 12.4974 18.8278 12.2851 18.4062 12.0643C17.4562 11.5633 16.8209 10.6377 16.4944 9.28752C16.3103 8.49777 16.2984 6.60409 16.4766 5.83133C16.9694 3.69988 18.2281 2.56197 20.0806 2.56197C21.3275 2.56197 22.705 3.02902 23.9697 3.89519C24.0766 3.96313 24.1894 3.9971 24.2191 3.96313C24.2606 3.92916 24.2844 3.43663 24.2844 2.64689C24.2844 1.42407 24.2784 1.37311 24.1537 1.25423C24.0172 1.12685 23.8272 1.06741 22.8 0.829637C22.5209 0.761702 22.23 0.685275 22.1469 0.6598C21.7966 0.540914 20.0094 0.354093 19.3681 0.362584C18.9881 0.371076 18.3409 0.422027 17.9312 0.48147ZM6.98844 0.838128C6.96469 0.863603 6.94687 2.69784 6.94687 4.90572C6.94687 9.17712 6.91719 9.71211 6.65 10.5698C6.48969 11.0878 6.00875 11.7586 5.605 12.0304C5.24281 12.2766 4.56594 12.4974 4.17406 12.4974C3.43781 12.4974 1.87625 12.0219 1.20531 11.5973C1.10438 11.5294 0.991562 11.4784 0.95 11.4784C0.914375 11.4784 0.718438 11.3595 0.5225 11.2237C0.320625 11.0793 0.11875 10.9859 0.0771877 11.0029C0.0178127 11.0368 0 11.351 0 12.3701V13.6863L0.201875 13.8052C0.397812 13.9241 0.581875 13.975 1.75156 14.2468C2.755 14.476 3.11719 14.527 4.21562 14.5779C5.38531 14.6374 6.89937 14.527 7.39219 14.3571C8.23531 14.0684 8.61531 13.8986 8.96562 13.6693C9.96312 13.0069 10.5331 12.1153 10.8834 10.6972C11.0141 10.1707 11.0141 10.1027 11.0141 5.49166V0.821144L9.01906 0.795668C7.92656 0.787177 7.01219 0.80416 6.98844 0.838128ZM25.7866 0.838128C25.7272 0.872095 25.7094 2.28174 25.7094 7.48725C25.7094 14.0684 25.7094 14.1024 25.8281 14.1958C25.9172 14.2637 27.3303 14.2807 30.685 14.2552C35.8684 14.2213 35.7497 14.2298 36.5097 13.7033C36.8956 13.4315 37.4478 12.6843 37.62 12.2002C38 11.1472 37.9109 9.84798 37.3944 8.91388C37.0322 8.25151 36.3672 7.742 35.4766 7.44479C35.3162 7.39383 35.1856 7.30892 35.1975 7.26646C35.2034 7.224 35.3341 7.14757 35.4825 7.08813C36.6937 6.64655 37.4003 5.21992 37.2341 3.53854C37.0916 2.09492 36.3316 1.18629 35.0016 0.863604C34.6869 0.787177 25.9112 0.761701 25.7866 0.838128ZM32.7334 2.9526C33.1372 3.24981 33.4281 3.92067 33.4281 4.55756C33.4281 5.25389 33.0541 6.00966 32.6147 6.19648C32.3712 6.29839 29.6459 6.35783 29.5806 6.25593C29.5272 6.18799 29.4916 3.28378 29.5391 3.01204L29.5687 2.81673H31.0591C32.3119 2.81673 32.5731 2.8422 32.7334 2.9526ZM33.0006 8.51476C33.5706 8.87991 33.8437 9.71211 33.7131 10.6717C33.6537 11.0963 33.6003 11.2406 33.3747 11.5633C33.0006 12.0983 32.7572 12.1578 31.0175 12.1578C29.7112 12.1578 29.6281 12.1493 29.5687 11.9964C29.5034 11.8181 29.4856 8.86292 29.545 8.52325L29.5806 8.33643H31.1541C32.6206 8.33643 32.7394 8.34492 33.0006 8.51476Z" fill="#284D8A"/>
</svg>
