<svg width="18" height="32" viewBox="0 0 18 32" fill="none" xmlns="http://www.w3.org/2000/svg">
<path d="M7.5 1.5C7.5 0.66875 8.16875 0 9 0C9.83125 0 10.5 0.66875 10.5 1.5V4H14C15.1062 4 16 4.89375 16 6C16 7.10625 15.1062 8 14 8H6.81875C5.2625 8 4 9.2625 4 10.8188C4 12.225 5.03125 13.4125 6.41875 13.6125L12.1437 14.4312C15.5062 14.9125 18 17.7875 18 21.1812C18 24.95 14.9437 28 11.1812 28H10.5V30.5C10.5 31.3312 9.83125 32 9 32C8.16875 32 7.5 31.3312 7.5 30.5V28H3C1.89375 28 1 27.1063 1 26C1 24.8937 1.89375 24 3 24H11.1812C12.7375 24 14 22.7375 14 21.1812C14 19.775 12.9687 18.5875 11.5812 18.3875L5.85625 17.5688C2.49375 17.0938 0 14.2125 0 10.8188C0 7.05625 3.05625 4 6.81875 4H7.5V1.5Z" fill="#DE1A10"/>
</svg>
