<svg width="30" height="30" viewBox="0 0 30 30" fill="none" xmlns="http://www.w3.org/2000/svg">
<g clip-path="url(#clip0_174_2563)">
<path d="M14.5015 0.391381C16.9636 0.246179 19.4446 0.85224 21.629 1.97598C23.8449 3.1881 25.7767 4.93684 27.153 7.05805C29.4699 10.5555 30.0002 15.082 28.9207 19.0972C28.3525 21.0984 27.2982 22.9419 25.9661 24.5328C24.8613 25.8838 23.4914 27.0075 21.9762 27.8661C19.7414 29.1288 17.1656 29.7348 14.6025 29.7159C12.7906 29.7538 10.9851 29.3623 9.31207 28.6868C7.38025 27.9166 5.67571 26.6603 4.20475 25.2083C2.22243 23.1502 0.808284 20.5113 0.378991 17.6767C0.107527 15.7765 0.000203386 13.8194 0.423183 11.9318C0.871415 9.7285 1.88152 7.65148 3.30828 5.90906C4.77924 4.02774 6.73 2.51259 8.92066 1.54668C10.6757 0.776482 12.5949 0.448199 14.5015 0.391381ZM13.8702 2.08961C12.4181 2.20325 10.9661 2.49365 9.62773 3.08078C7.79692 3.88886 6.14919 5.11992 4.88025 6.66663C3.64919 8.08709 2.70854 9.76638 2.22243 11.5846C1.64162 13.5858 1.71106 15.7197 2.07091 17.7525C2.37394 19.3118 2.94844 20.8333 3.87015 22.1338C5.08227 23.9899 6.8247 25.4482 8.73126 26.5467C10.5621 27.5315 12.6454 28.0997 14.7287 28.0113C16.5785 28.024 18.4472 27.6767 20.1391 26.9128C24.0343 25.1515 26.9952 21.3762 27.658 17.1401C28.2515 13.1565 27.0457 8.82572 24.1227 5.98482C22.6707 4.48229 20.8588 3.31436 18.8765 2.6578C17.2729 2.09593 15.5558 1.95704 13.8702 2.08961Z" fill="#2147A5" stroke="#2147A5" stroke-width="0.494529"/>
<path d="M9.23647 6.47754H13.9082V8.30835C12.9233 8.30835 11.9385 8.30203 10.96 8.32729C10.941 9.01542 10.941 9.70355 10.9663 10.3917C11.566 10.0318 12.1405 9.62779 12.7276 9.24269C13.3842 9.874 13.9776 10.5684 14.6216 11.2124C14.2617 11.6291 13.8892 12.0331 13.4915 12.4182C13.2137 12.1278 12.9296 11.8437 12.6456 11.5596C12.0711 11.9258 11.5029 12.2919 10.941 12.6707C10.941 13.2642 10.941 13.8639 10.9473 14.4636C11.566 14.0722 12.1405 13.6303 12.7529 13.2263C13.3968 13.9839 14.0534 14.7288 14.691 15.4864C14.3059 15.8336 13.9461 16.1998 13.561 16.547C13.2958 16.1556 13.0243 15.7705 12.7592 15.3791C12.1468 15.7768 11.5408 16.1745 10.941 16.5849C10.941 16.869 10.9473 17.153 10.9536 17.4434C12.0016 17.4687 13.0496 17.4624 14.0976 17.4624V19.4195C13.0749 19.4195 12.0458 19.4131 11.0231 19.4321C11.0105 20.0508 11.0041 20.6758 11.0168 21.2945C12.0647 21.3197 13.1127 21.3134 14.1607 21.3134V23.2705H6.20616V21.3765H9.2996V19.4195H6.20616V17.5255H9.2996V16.0104C9.09126 16.1682 8.88924 16.326 8.68091 16.4775C8.30844 16.1366 7.92965 15.802 7.55086 15.4738C7.24783 15.7578 6.95111 16.0546 6.64808 16.345C6.30086 16.0041 5.94732 15.6695 5.57485 15.3601C6.16828 14.6657 6.82485 14.028 7.4751 13.3904C8.06854 13.7945 8.64934 14.2174 9.23015 14.6341C9.23647 13.8134 9.24278 12.9864 9.23647 12.1594C9.08495 12.2667 8.93975 12.3677 8.78823 12.475C8.4852 12.1909 8.17586 11.9005 7.85389 11.6417C7.41828 11.9889 6.9953 12.3488 6.55339 12.6833C6.21248 12.1909 5.85894 11.7111 5.51172 11.225C6.26298 10.6 6.90061 9.85506 7.64556 9.23638C8.16323 9.65936 8.70616 10.0508 9.23015 10.4611C9.23647 9.13537 9.23647 7.8033 9.23647 6.47754ZM15.4233 6.47754H22.6203V12.1594H15.3602C15.3223 10.2654 15.4549 8.37148 15.4233 6.47754ZM17.0016 8.30835V10.2023H20.9158V8.30835H17.0016ZM15.4233 13.5482H22.7466V19.4195H17.3804V21.3765H22.6203V23.2705H15.4865V17.3361H17.3173V15.5684H15.4233V13.5482ZM19.085 15.4422V17.3993C19.6658 17.3993 20.2466 17.4245 20.8274 17.3803C20.8463 17.3614 20.8779 17.3298 20.8968 17.3172C20.941 16.6922 20.9158 16.0672 20.9158 15.4422H19.085Z" fill="#FF0000" stroke="#FF0000" stroke-width="0.494529"/>
</g>
<defs>
<clipPath id="clip0_174_2563">
<rect width="30" height="30" fill="white"/>
</clipPath>
</defs>
</svg>
