<svg width="38" height="14" viewBox="0 0 38 14" fill="none" xmlns="http://www.w3.org/2000/svg">
<g clip-path="url(#clip0_174_2622)">
<path d="M24.7508 0.0166016C22.0526 0.0166016 19.6414 1.60293 19.6414 4.53379C19.6414 7.89491 23.9178 8.12704 23.9178 9.81558C23.9178 10.5266 23.1995 11.163 21.9726 11.163C20.2315 11.163 18.9302 10.2737 18.9302 10.2737L18.3734 13.2313C18.3734 13.2313 19.8725 13.9825 21.8628 13.9825C24.8127 13.9825 27.1339 12.3182 27.1339 9.3373C27.1339 5.78565 22.8398 5.56038 22.8398 3.99316C22.8398 3.43614 23.4295 2.82592 24.6528 2.82592C26.033 2.82592 27.1592 3.47269 27.1592 3.47269L27.7041 0.61621C27.7041 0.61621 26.4788 0.0166016 24.7508 0.0166016ZM0.0653493 0.232205L0 0.663369C0 0.663369 1.13513 0.898993 2.15748 1.36907C3.47382 1.90806 3.56763 2.22187 3.78931 3.19646L6.20511 13.7601H9.44359L14.4327 0.232205H11.2016L7.99586 9.42989L6.68773 1.63348C6.56776 0.741205 5.96007 0.232205 5.21623 0.232205H0.0653493ZM15.7319 0.232205L13.1973 13.7601H16.2783L18.804 0.232162H15.7319V0.232205ZM32.9159 0.232205C32.173 0.232205 31.7793 0.683389 31.4905 1.47181L26.9765 13.7601H30.2076L30.8327 11.712H34.769L35.1491 13.7601H38L35.5129 0.232205H32.9159ZM33.3361 3.88702L34.2938 8.96335H31.728L33.3361 3.88702Z" fill="#1434CB"/>
</g>
<defs>
<clipPath id="clip0_174_2622">
<rect width="38" height="14" fill="white"/>
</clipPath>
</defs>
</svg>
