<svg width="38" height="22" viewBox="0 0 38 22" fill="none" xmlns="http://www.w3.org/2000/svg">
<path d="M37.6934 11C37.6934 17.0771 32.5179 22 26.1351 22C19.7524 22 14.5769 17.0771 14.5769 11C14.5769 4.92286 19.7443 0 26.1271 0C32.5099 0 37.6934 4.92286 37.6934 11Z" fill="#F79F1A"/>
<path d="M23.4227 11C23.4227 17.0771 18.2472 22 11.8644 22C5.48161 22 0.306152 17.0771 0.306152 11C0.306152 4.92286 5.48161 0 11.8644 0C18.2472 0 23.4227 4.92286 23.4227 11Z" fill="#EA001B"/>
<path d="M18.9958 2.33911C16.2994 4.34954 14.5688 7.48366 14.5688 11C14.5688 14.5163 16.2994 17.6504 18.9958 19.6609C21.6921 17.6504 23.4227 14.5163 23.4227 11C23.4227 7.48367 21.6921 4.35718 18.9958 2.33911Z" fill="#FF5F01"/>
</svg>
