<svg width="40" height="40" viewBox="0 0 40 40" fill="none" xmlns="http://www.w3.org/2000/svg">
<g clip-path="url(#clip0_3666_4587)">
<path d="M19.5 20C22.6817 20 25.25 17.32 25.25 14C25.25 10.68 22.6817 8 19.5 8C16.3183 8 13.75 10.68 13.75 14C13.75 17.32 16.3183 20 19.5 20ZM19.5 22C15.9733 22 12.6767 23 9.85917 24.74C8.69 25.44 8 26.78 8 28.18V32H31V28.18C31 26.78 30.31 25.46 29.1408 24.74C26.2217 22.9388 22.8912 21.9923 19.5 22Z" fill="white"/>
</g>
<defs>
<clipPath id="clip0_3666_4587">
<rect width="24" height="24" fill="white" transform="translate(7.5 7.5)"/>
</clipPath>
</defs>
</svg>
