<svg width="40" height="40" viewBox="0 0 40 40" fill="none" xmlns="http://www.w3.org/2000/svg">
<path d="M30.4946 27.5795V28.7455H9.50537V27.5795L11.8375 25.2473V18.2509C11.8375 14.6361 14.2046 11.4527 17.6679 10.4266V10.0884C17.6679 9.46989 17.9136 8.8767 18.3509 8.43934C18.7883 8.00198 19.3815 7.75627 20 7.75627C20.6185 7.75627 21.2117 8.00198 21.6491 8.43934C22.0864 8.8767 22.3321 9.46989 22.3321 10.0884V10.4266C25.7954 11.4527 28.1625 14.6361 28.1625 18.2509V25.2473L30.4946 27.5795ZM22.3321 29.9116C22.3321 30.5301 22.0864 31.1233 21.6491 31.5607C21.2117 31.998 20.6185 32.2437 20 32.2437C19.3815 32.2437 18.7883 31.998 18.3509 31.5607C17.9136 31.1233 17.6679 30.5301 17.6679 29.9116" fill="#DE1A10"/>
</svg>
