<svg width="40" height="40" viewBox="0 0 40 40" fill="none" xmlns="http://www.w3.org/2000/svg">
<path d="M20.5218 7.90312C19.9453 7.36875 19.0546 7.36875 18.4828 7.90312L7.98277 17.6531C7.53277 18.075 7.38277 18.7266 7.60777 19.2984C7.83277 19.8703 8.3812 20.25 8.99995 20.25H9.74995V28.5C9.74995 30.1547 11.0953 31.5 12.75 31.5H26.25C27.9046 31.5 29.25 30.1547 29.25 28.5V20.25H30C30.6187 20.25 31.1718 19.8703 31.3968 19.2984C31.6218 18.7266 31.4718 18.0703 31.0218 17.6531L20.5218 7.90312ZM18.75 22.5H20.25C21.4921 22.5 22.5 23.5078 22.5 24.75V29.25H16.5V24.75C16.5 23.5078 17.5078 22.5 18.75 22.5Z" fill="#818181"/>
</svg>
