<svg width="23" height="23" viewBox="0 0 23 23" fill="none" xmlns="http://www.w3.org/2000/svg">
<path fill-rule="evenodd" clip-rule="evenodd" d="M7.66669 6.38889C7.66669 5.37223 8.07056 4.3972 8.78944 3.67831C9.50833 2.95942 10.4833 2.55556 11.5 2.55556C12.5167 2.55556 13.4917 2.95942 14.2106 3.67831C14.9294 4.3972 15.3333 5.37223 15.3333 6.38889H7.66669ZM5.11115 6.38889C5.11115 4.69445 5.78426 3.06941 6.9824 1.87126C8.18054 0.673113 9.80557 0 11.5 0C13.1944 0 14.8195 0.673113 16.0176 1.87126C17.2157 3.06941 17.8888 4.69445 17.8888 6.38889H21.7222C21.8997 6.38888 22.0752 6.42585 22.2376 6.49745C22.4001 6.56904 22.5458 6.6737 22.6655 6.80473C22.7852 6.93577 22.8764 7.09031 22.9331 7.25851C22.9898 7.42672 23.0108 7.60489 22.9948 7.78167L21.9279 19.5142C21.8412 20.4666 21.4016 21.3522 20.6954 21.9972C19.9893 22.6421 19.0675 22.9998 18.1112 23H4.88882C3.93247 22.9998 3.01074 22.6421 2.30458 21.9972C1.59842 21.3522 1.15883 20.4666 1.07212 19.5142L0.00518561 7.78167C-0.0107894 7.60489 0.0102424 7.42672 0.0669403 7.25851C0.123638 7.09031 0.214758 6.93577 0.334493 6.80473C0.454227 6.6737 0.599948 6.56904 0.762368 6.49745C0.924789 6.42585 1.10034 6.38888 1.27784 6.38889H5.11115Z" fill="#DEDEDE"/>
</svg>
