<svg width="98" height="48" viewBox="0 0 98 48" fill="none" xmlns="http://www.w3.org/2000/svg">
<g clip-path="url(#clip0_818_1255)" filter="url(#filter0_i_818_1255)">
<path d="M23.5405 26.736V39.184H2.8685V26.736H6.3245V35.344H11.1885V25.136H3.8285V13.552H7.2205V21.36H11.1885V10.96H14.5485V21.36H18.9005V13.552H22.5485V25.136H14.5485V35.344H19.8605V26.736H23.5405ZM33.0063 14.576V21.264H29.7743V17.424C29.0703 18.16 28.1103 18.96 27.1503 19.6L25.1983 16.624C27.5663 15.344 30.5103 12.848 32.0463 10.416L35.0543 11.76C34.4783 12.72 33.7423 13.712 33.0063 14.576ZM48.7183 16.464C48.3983 20.016 47.3423 21.136 43.6303 21.136H41.7103C37.1663 21.136 36.1743 20.08 36.1743 17.136V16.912C35.7263 17.008 34.9903 17.072 34.4143 17.232L33.8063 14.576C34.4463 14.48 35.5343 14.256 36.1743 14.096V10.768H39.2143V13.488C39.6623 13.328 40.1423 13.2 40.6543 13.04L40.9743 12.944C42.5423 12.464 44.1103 11.92 45.1983 11.44L47.5023 13.904C46.3503 14.384 44.9103 14.864 43.4383 15.312L43.1183 15.376C41.7743 15.76 40.4303 16.112 39.2143 16.4V17.072C39.2143 17.968 39.3103 18.128 41.8703 18.128H43.5343C45.7743 18.128 45.8703 17.648 45.9983 16.016L48.7183 16.464ZM35.9183 36.4C33.9023 38.032 30.2543 39.888 27.3743 40.88L26.0623 37.776C27.7903 37.328 30.7663 36.112 32.4303 35.088H28.5583V21.936H45.9343V35.088H41.3583C42.1903 35.472 43.1183 35.888 44.0783 36.368L44.3663 36.528L44.6863 36.688C46.3183 37.52 47.8863 38.352 48.8463 38.96L45.0383 40.688C43.6623 39.696 40.6543 37.936 38.2223 36.784L40.6543 35.088H33.4543L35.9183 36.4ZM31.7263 25.616H42.6063V24.272H31.7263V25.616ZM31.7263 29.136H42.6063V27.792H31.7263V29.136ZM31.7263 32.752H42.6063V31.344H31.7263V32.752ZM73.192 29.008C72.84 33.136 72.072 34.928 70.568 34.928C67.272 34.928 66.792 26.576 66.76 15.248H56.68V14.672L54.6 17.232C54.088 16.688 53.256 15.856 52.424 15.024L52.168 14.8C51.592 14.224 50.984 13.648 50.504 13.2L52.68 10.8C53.896 11.856 55.816 13.584 56.68 14.512V14.544V11.76H69.992C69.96 16.592 69.864 20.944 69.864 24.24V24.784C69.864 28.656 70.024 30.992 70.6 30.992C70.824 30.992 71.08 29.104 71.112 28.208L73.192 29.008ZM63.176 24.496C62.856 27.984 61.512 32.208 58.312 34.768L56.104 31.952C58.376 30.16 59.784 27.536 60.2 25.232L56.744 26.128L56.04 22.512C57.128 22.32 58.76 22.032 60.2 21.712V15.824H63.432V21.008C63.88 20.88 64.456 20.752 65.032 20.624L65.352 20.528C65.672 20.464 65.992 20.4 66.28 20.304L66.568 23.664C65.544 23.92 64.168 24.24 63.176 24.496ZM56.104 20.624L53.8 23.376C52.872 22.416 50.792 20.56 49.512 19.504L51.656 16.976C52.936 17.968 55.08 19.696 56.104 20.624ZM54.056 36.304C53 37.456 51.912 38.832 50.632 40.304L49.064 36.304C50.056 35.568 51.144 34.32 52.36 33.296V28.464H49.48V24.88H55.72V33.008C56.712 35.024 58.44 36.176 60.968 36.304C63.784 36.496 69.928 36.368 72.712 36.08L72.68 39.856C71.176 39.952 69.16 40.016 67.144 40.048H66.792C64.552 40.08 62.344 40.08 60.872 39.984C57.928 39.824 55.56 38.832 54.056 36.304ZM89.7297 29.616V35.344H86.7217V29.392C85.5377 31.472 83.4257 33.712 81.6337 34.864L79.7777 31.792C81.6017 30.864 84.1617 28.72 85.4417 26.736H80.9937V18.128H86.7217V16.56H80.4497V14.704L78.5937 17.232C77.8257 16.08 75.8737 14.224 74.4977 13.2L76.6737 10.8C78.0177 11.696 79.6177 13.392 80.4497 14.48V13.296H86.7217V10.672H89.7297V13.296H96.5457V16.56H89.7297V18.128H95.7778V26.736H90.6577C92.1297 28.592 94.9137 30.704 96.6418 31.504L94.7218 34.736C93.0898 33.68 90.9777 31.632 89.7297 29.616ZM80.0977 20.624L77.7937 23.376C76.8657 22.416 74.7857 20.56 73.5057 19.504L75.6497 16.976C76.9297 17.968 79.0737 19.696 80.0977 20.624ZM84.0337 23.792H86.7217V21.104H84.0337V23.792ZM89.7297 23.792H92.5777V21.104H89.7297V23.792ZM78.0497 36.304C76.9937 37.456 75.9057 38.832 74.6257 40.304L73.0577 36.304C74.0497 35.568 75.1377 34.32 76.3537 33.296V28.464H73.4737V24.88H79.7137V33.008C80.7057 35.024 82.4337 36.176 84.9617 36.304C86.2417 36.4 88.1617 36.4 90.1777 36.368H90.5297H90.8818C93.1537 36.304 95.3617 36.208 96.7057 36.08V39.856C95.2657 39.952 93.3778 40.016 91.4897 40.048H90.9777H90.5938C88.4177 40.08 86.3057 40.08 84.8657 39.984C81.9217 39.824 79.5537 38.832 78.0497 36.304Z" fill="#DD4C4C"/>
</g>
<defs>
<filter id="filter0_i_818_1255" x="0" y="0" width="98" height="52" filterUnits="userSpaceOnUse" color-interpolation-filters="sRGB">
<feFlood flood-opacity="0" result="BackgroundImageFix"/>
<feBlend mode="normal" in="SourceGraphic" in2="BackgroundImageFix" result="shape"/>
<feColorMatrix in="SourceAlpha" type="matrix" values="0 0 0 0 0 0 0 0 0 0 0 0 0 0 0 0 0 0 127 0" result="hardAlpha"/>
<feOffset dy="4"/>
<feGaussianBlur stdDeviation="2"/>
<feComposite in2="hardAlpha" operator="arithmetic" k2="-1" k3="1"/>
<feColorMatrix type="matrix" values="0 0 0 0 0 0 0 0 0 0 0 0 0 0 0 0 0 0 0.5 0"/>
<feBlend mode="normal" in2="shape" result="effect1_innerShadow_818_1255"/>
</filter>
<clipPath id="clip0_818_1255">
<rect width="98" height="48" fill="white"/>
</clipPath>
</defs>
</svg>
