<svg width="98" height="48" viewBox="0 0 98 48" fill="none" xmlns="http://www.w3.org/2000/svg">
<g clip-path="url(#clip0_818_1262)" filter="url(#filter0_i_818_1262)">
<path d="M8.7565 15.824C8.9165 16.208 9.1085 16.656 9.3005 17.104L9.4285 17.424C9.5885 17.84 9.7485 18.288 9.9085 18.704V15.344H14.4525V10.672H17.7805V15.344H23.2525V24.624H24.9805V28.304H18.6765C19.8605 32.016 22.4205 35.632 25.2685 36.944L23.1565 40.752C20.1165 38.96 17.5245 35.12 16.2125 31.088C15.2525 34.448 13.3325 38.416 9.9725 40.816L7.8285 37.68C11.3805 35.536 13.4605 31.632 14.1325 28.304H8.7565V24.624H14.5165C14.4525 23.856 14.4525 22.864 14.4525 22.032V18.928H10.0045C10.4205 20.048 10.7725 21.104 10.9325 21.84L8.3085 23.184C8.1165 22.096 7.8285 20.304 7.4445 18.864V40.592H4.1165V10.672H7.4445V16.56L8.7565 15.824ZM4.0845 17.2C4.0205 18.256 3.9565 19.536 3.8925 20.816L3.8605 21.168L3.8285 21.68C3.7325 23.312 3.6365 24.912 3.5085 26.16L0.820502 25.136C1.2045 23.088 1.7805 19.248 2.1325 16.784L4.0845 17.2ZM17.4925 24.624H19.9885V18.928H17.7805V21.776C17.7805 22.672 17.5245 23.696 17.4925 24.624ZM41.7423 29.616V35.344H38.7343V29.392C37.5503 31.472 35.4383 33.712 33.6463 34.864L31.7903 31.792C33.6143 30.864 36.1743 28.72 37.4543 26.736H33.0063V18.128H38.7343V16.56H32.4623V14.704L30.6063 17.232C29.8383 16.08 27.8863 14.224 26.5103 13.2L28.6863 10.8C30.0303 11.696 31.6303 13.392 32.4623 14.48V13.296H38.7343V10.672H41.7423V13.296H48.5583V16.56H41.7423V18.128H47.7903V26.736H42.6703C44.1423 28.592 46.9263 30.704 48.6543 31.504L46.7343 34.736C45.1023 33.68 42.9903 31.632 41.7423 29.616ZM32.1103 20.624L29.8063 23.376C28.8783 22.416 26.7983 20.56 25.5183 19.504L27.6623 16.976C28.9423 17.968 31.0863 19.696 32.1103 20.624ZM36.0463 23.792H38.7343V21.104H36.0463V23.792ZM41.7423 23.792H44.5903V21.104H41.7423V23.792ZM30.0623 36.304C29.0063 37.456 27.9183 38.832 26.6383 40.304L25.0703 36.304C26.0623 35.568 27.1503 34.32 28.3663 33.296V28.464H25.4863V24.88H31.7263V33.008C32.7183 35.024 34.4463 36.176 36.9743 36.304C38.2543 36.4 40.1743 36.4 42.1903 36.368H42.5423H42.8943C45.1663 36.304 47.3743 36.208 48.7183 36.08V39.856C47.2783 39.952 45.3903 40.016 43.5023 40.048H42.9903H42.6063C40.4303 40.08 38.3183 40.08 36.8783 39.984C33.9343 39.824 31.5663 38.832 30.0623 36.304ZM72.2 11.664V39.28H50.088V11.664H72.2ZM53.576 35.632H68.52V15.664H53.576V35.632ZM66.408 19.184V31.408H55.528V19.184H66.408ZM58.632 28.048H63.112V22.576H58.632V28.048ZM88.5777 38.896C86.3697 39.76 83.3937 40.4 80.4177 40.688L79.9697 38.16C81.4737 38.064 83.7457 37.712 85.4097 37.264C84.8017 36.88 84.2577 36.336 83.7777 35.92C83.2017 36.176 82.4017 36.496 81.6977 36.784L80.6417 34.544C82.0817 34 84.0337 32.88 85.2817 31.824H82.7217V27.152C82.4337 27.504 82.0817 28.048 81.8897 28.4C81.6977 28.016 81.0577 27.408 80.5777 26.928C80.1297 27.824 79.8417 28.784 79.2657 29.616V40.592H76.3217V32.784C75.9697 33.296 75.3617 33.872 74.9137 34.224L73.1217 31.856C75.1697 30.384 77.3457 27.504 78.3377 25.264L80.0337 25.936C81.4097 24.656 82.6577 22.576 83.3937 20.528H75.1697V14.928H80.7057V14.064H73.9217V11.472H96.2897V14.064H89.1537V14.928H95.2337V20.528H84.6097L86.1137 21.136C86.0497 21.36 85.9217 21.552 85.8257 21.808H96.0338V24.272H84.6737C84.5457 24.56 84.3537 24.816 84.2257 25.104H94.6897V31.824H88.4817C88.2897 32.08 88.0337 32.432 87.7777 32.688H92.7697L93.1857 32.592L94.9777 33.712C94.2097 34.992 92.9297 36.336 91.7457 37.2C93.2498 37.488 95.3617 37.712 96.5777 37.808L96.0338 40.432C93.1857 40.176 90.4977 39.632 88.5777 38.896ZM83.3297 14.928H86.4017V14.064H83.3297V14.928ZM83.3297 18.288H86.4017V17.168H83.3297V18.288ZM89.1537 18.288H92.2577V17.168H89.1537V18.288ZM77.9537 18.288H80.7057V17.168H77.9537V18.288ZM80.4177 21.68C79.3617 23.888 76.9937 26.544 75.0097 27.888L73.2817 25.424C74.8817 24.4 77.0257 22.256 77.8897 20.656L80.4177 21.68ZM85.4097 27.6H91.9697V26.768H85.4097V27.6ZM85.4097 30.128H91.9697V29.232H85.4097V30.128ZM86.0177 34.864C86.6897 35.376 87.4577 35.92 88.4177 36.336C89.2177 35.92 89.8577 35.376 90.4977 34.864H86.0177Z" fill="#DD4C4C"/>
</g>
<defs>
<filter id="filter0_i_818_1262" x="0" y="0" width="98" height="52" filterUnits="userSpaceOnUse" color-interpolation-filters="sRGB">
<feFlood flood-opacity="0" result="BackgroundImageFix"/>
<feBlend mode="normal" in="SourceGraphic" in2="BackgroundImageFix" result="shape"/>
<feColorMatrix in="SourceAlpha" type="matrix" values="0 0 0 0 0 0 0 0 0 0 0 0 0 0 0 0 0 0 127 0" result="hardAlpha"/>
<feOffset dy="4"/>
<feGaussianBlur stdDeviation="2"/>
<feComposite in2="hardAlpha" operator="arithmetic" k2="-1" k3="1"/>
<feColorMatrix type="matrix" values="0 0 0 0 0 0 0 0 0 0 0 0 0 0 0 0 0 0 0.5 0"/>
<feBlend mode="normal" in2="shape" result="effect1_innerShadow_818_1262"/>
</filter>
<clipPath id="clip0_818_1262">
<rect width="98" height="48" fill="white"/>
</clipPath>
</defs>
</svg>
