<svg width="41" height="39" viewBox="0 0 41 39" fill="none" xmlns="http://www.w3.org/2000/svg">
<g filter="url(#filter0_i_647_1058)">
<path d="M17.6468 2.28115C18.5449 -0.482778 22.4551 -0.482778 23.3532 2.28115L26.0006 10.4291C26.4022 11.6652 27.5541 12.502 28.8538 12.502H37.421C40.3272 12.502 41.5355 16.2209 39.1844 17.9291L32.2533 22.9648C31.2019 23.7287 30.7619 25.0828 31.1635 26.3189L33.8109 34.4668C34.709 37.2307 31.5455 39.5291 29.1944 37.8209L22.2634 32.7852C21.2119 32.0213 19.7881 32.0213 18.7366 32.7852L11.8056 37.8209C9.45446 39.5291 6.29102 37.2307 7.18908 34.4668L9.8365 26.3189C10.2381 25.0828 9.79815 23.7287 8.74668 22.9648L1.81564 17.9291C-0.5355 16.2209 0.672826 12.502 3.579 12.502H12.1462C13.4459 12.502 14.5978 11.6652 14.9994 10.4291L17.6468 2.28115Z" fill="#DE1A10"/>
</g>
<defs>
<filter id="filter0_i_647_1058" x="0.573242" y="0.208252" width="39.8535" height="42.1992" filterUnits="userSpaceOnUse" color-interpolation-filters="sRGB">
<feFlood flood-opacity="0" result="BackgroundImageFix"/>
<feBlend mode="normal" in="SourceGraphic" in2="BackgroundImageFix" result="shape"/>
<feColorMatrix in="SourceAlpha" type="matrix" values="0 0 0 0 0 0 0 0 0 0 0 0 0 0 0 0 0 0 127 0" result="hardAlpha"/>
<feOffset dy="4"/>
<feGaussianBlur stdDeviation="2"/>
<feComposite in2="hardAlpha" operator="arithmetic" k2="-1" k3="1"/>
<feColorMatrix type="matrix" values="0 0 0 0 0 0 0 0 0 0 0 0 0 0 0 0 0 0 0.5 0"/>
<feBlend mode="normal" in2="shape" result="effect1_innerShadow_647_1058"/>
</filter>
</defs>
</svg>
