<svg width="213" height="168" viewBox="0 0 213 168" fill="none" xmlns="http://www.w3.org/2000/svg">
<path d="M198.794 6.69629C203.212 6.69629 206.794 10.278 206.794 14.6963V128.696C206.794 133.115 203.212 136.696 198.794 136.696H93.251L36.2979 157.404L43.5322 136.696H14.7939C10.3757 136.696 6.79395 133.115 6.79395 128.696V14.6963C6.79395 10.278 10.3757 6.69629 14.7939 6.69629H198.794Z" fill="white"/>
<path d="M198.794 6.69629L198.794 0.696289H198.794V6.69629ZM206.794 14.6963L212.794 14.6963L206.794 14.6963ZM93.251 136.696V130.696H92.194L91.2007 131.057L93.251 136.696ZM36.2979 157.404L30.6336 155.425L26.4626 167.365L38.3481 163.043L36.2979 157.404ZM43.5322 136.696L49.1965 138.675L51.9839 130.696H43.5322V136.696ZM14.7939 136.696L14.7939 142.696H14.7939V136.696ZM6.79395 128.696L0.793945 128.696L6.79395 128.696ZM198.794 6.69629L198.794 12.6963C199.899 12.6963 200.794 13.5917 200.794 14.6963L206.794 14.6963L212.794 14.6963C212.794 6.9643 206.526 0.696293 198.794 0.696289L198.794 6.69629ZM206.794 14.6963H200.794V128.696H206.794H212.794V14.6963H206.794ZM206.794 128.696H200.794C200.794 129.801 199.899 130.696 198.794 130.696V136.696V142.696C206.526 142.696 212.794 136.428 212.794 128.696H206.794ZM198.794 136.696V130.696H93.251V136.696V142.696H198.794V136.696ZM93.251 136.696L91.2007 131.057L34.2476 151.765L36.2979 157.404L38.3481 163.043L95.3012 142.335L93.251 136.696ZM36.2979 157.404L41.9621 159.383L49.1965 138.675L43.5322 136.696L37.8679 134.717L30.6336 155.425L36.2979 157.404ZM43.5322 136.696V130.696H14.7939V136.696V142.696H43.5322V136.696ZM14.7939 136.696L14.7939 130.696C13.6894 130.696 12.7939 129.801 12.7939 128.696L6.79395 128.696L0.793945 128.696C0.793945 136.428 7.06196 142.696 14.7939 142.696L14.7939 136.696ZM6.79395 128.696H12.7939V14.6963H6.79395H0.793945V128.696H6.79395ZM6.79395 14.6963H12.7939C12.7939 13.5917 13.6894 12.6963 14.7939 12.6963V6.69629V0.696289C7.06196 0.696289 0.793945 6.9643 0.793945 14.6963H6.79395ZM14.7939 6.69629V12.6963H198.794V6.69629V0.696289H14.7939V6.69629Z" fill="black"/>
<circle cx="56.7939" cy="73" r="9" fill="black"/>
<circle cx="106.794" cy="73" r="9" fill="black"/>
<circle cx="156.794" cy="73" r="9" fill="black"/>
</svg>
