<svg width="212" height="168" viewBox="0 0 212 168" fill="none" xmlns="http://www.w3.org/2000/svg">
<path d="M197.994 6.40381C202.412 6.40381 205.994 9.98553 205.994 14.4038V128.404C205.994 132.822 202.412 136.404 197.994 136.404H92.4512L35.498 157.112L42.7324 136.404H13.9941C9.57586 136.404 5.99414 132.822 5.99414 128.404V14.4038C5.99414 9.98553 9.57586 6.40381 13.9941 6.40381H197.994Z" fill="white"/>
<path d="M197.994 6.40381L197.994 0.403809H197.994V6.40381ZM205.994 14.4038L211.994 14.4038L205.994 14.4038ZM92.4512 136.404V130.404H91.3942L90.4009 130.765L92.4512 136.404ZM35.498 157.112L29.8338 155.133L25.6628 167.072L37.5483 162.751L35.498 157.112ZM42.7324 136.404L48.3967 138.383L51.1841 130.404H42.7324V136.404ZM13.9941 136.404L13.9941 142.404H13.9941V136.404ZM5.99414 128.404L-0.00585938 128.404L5.99414 128.404ZM197.994 6.40381L197.994 12.4038C199.099 12.4038 199.994 13.2992 199.994 14.4038L205.994 14.4038L211.994 14.4038C211.994 6.67182 205.726 0.403813 197.994 0.403809L197.994 6.40381ZM205.994 14.4038H199.994V128.404H205.994H211.994V14.4038H205.994ZM205.994 128.404H199.994C199.994 129.508 199.099 130.404 197.994 130.404V136.404V142.404C205.726 142.404 211.994 136.136 211.994 128.404H205.994ZM197.994 136.404V130.404H92.4512V136.404V142.404H197.994V136.404ZM92.4512 136.404L90.4009 130.765L33.4478 151.473L35.498 157.112L37.5483 162.751L94.5014 142.043L92.4512 136.404ZM35.498 157.112L41.1623 159.091L48.3967 138.383L42.7324 136.404L37.0681 134.425L29.8338 155.133L35.498 157.112ZM42.7324 136.404V130.404H13.9941V136.404V142.404H42.7324V136.404ZM13.9941 136.404L13.9941 130.404C12.8896 130.404 11.9941 129.508 11.9941 128.404L5.99414 128.404L-0.00585938 128.404C-0.00585937 136.136 6.26216 142.404 13.9941 142.404L13.9941 136.404ZM5.99414 128.404H11.9941V14.4038H5.99414H-0.00585938V128.404H5.99414ZM5.99414 14.4038H11.9941C11.9941 13.2992 12.8896 12.4038 13.9941 12.4038V6.40381V0.403809C6.26215 0.403809 -0.00585938 6.67182 -0.00585938 14.4038H5.99414ZM13.9941 6.40381V12.4038H197.994V6.40381V0.403809H13.9941V6.40381Z" fill="#DE1A10"/>
<circle cx="55.9941" cy="72.7075" r="9" fill="#DE1A10"/>
<circle cx="105.994" cy="72.7075" r="9" fill="#DE1A10"/>
<circle cx="155.994" cy="72.7075" r="9" fill="#DE1A10"/>
</svg>
