<svg width="74" height="48" viewBox="0 0 74 48" fill="none" xmlns="http://www.w3.org/2000/svg">
<g clip-path="url(#clip0_818_1252)" filter="url(#filter0_i_818_1252)">
<path d="M25.0094 31.28C24.4334 37.36 22.8334 39.696 15.9534 39.696H12.6254C5.48937 39.696 3.56937 38.032 3.56937 33.488V18.48H7.15337V23.216H18.1614V16.24H2.60937V12.4H21.7454V26.992H7.15337V33.488C7.15337 35.344 7.47337 35.824 12.5934 35.824H15.8894C20.8174 35.824 21.2974 34.576 21.6174 30.672L25.0094 31.28ZM33.8991 11.632V14.576H26.3791V11.632H33.8991ZM43.0191 14.96C42.4751 19.376 41.0031 23.856 36.8431 26.384L35.0831 23.44C38.4431 21.648 39.6271 18.128 40.0431 14.96H35.4671V11.728H48.5231C48.5231 11.728 48.5231 12.72 48.4911 13.136C48.2671 19.888 47.9151 23.12 47.2751 24.08C46.7951 24.816 46.0591 25.168 45.4191 25.264C44.6511 25.392 43.3071 25.392 41.9311 25.36L41.8991 22.128C42.3471 22.192 43.5311 22.224 43.8831 22.224C44.2351 22.224 44.2031 22.16 44.3951 21.84C44.7151 21.36 45.1951 19.408 45.3551 14.96H43.0191ZM39.1791 16.048C38.7951 16.784 38.2831 17.68 37.7711 18.544L37.5791 18.832C36.9711 19.824 36.3311 20.784 35.8191 21.552L33.7071 19.76C33.8991 19.504 34.1551 19.184 34.3791 18.864H25.1951V15.792H34.6991V18.448L34.7631 18.32C35.4351 17.392 36.1391 16.304 36.6511 15.376L39.1791 16.048ZM33.9951 20.24V23.152H26.2831V20.24H33.9951ZM42.0911 37.04C42.8911 37.04 43.0191 36.336 43.0511 34.064L45.4191 34.448C44.9711 33.072 44.4271 31.664 43.9151 30.608L46.5391 29.392C47.8191 31.664 49.0351 35.376 49.3551 37.456L46.4751 38.864C46.3791 37.808 45.9951 36.24 45.4831 34.672C45.1951 38.992 44.6191 40.368 42.1871 40.368H41.3871C38.5071 40.368 37.6751 38.928 37.6751 36.016V33.104C37.3231 35.248 36.6511 37.456 35.8191 38.864L33.9311 37.584V39.184H26.2191V28.976H33.9311V36.88C34.7311 35.312 35.0191 32.4 35.2431 30.096L37.6751 30.832V28.848H40.9391C40.0751 28.048 39.1151 27.216 38.3151 26.64L40.2031 24.4C41.7711 25.392 44.0751 27.216 44.9711 28.528L42.8271 30.992C42.4431 30.416 41.7711 29.648 41.0031 28.912V35.984C41.0031 36.944 40.7791 37.04 41.5791 37.04H42.0911ZM33.9951 24.528V27.44H26.2831V24.528H33.9951ZM28.9711 35.824H31.3071V32.048H28.9711V35.824ZM72.6769 36.176V39.536H58.1169V36.176H61.5729C61.4129 35.024 60.9649 33.168 60.5169 31.984L62.5649 31.344H59.5889V23.664C59.3649 23.952 58.9809 24.336 58.5009 24.56C58.3729 23.888 57.9249 22.8 57.5089 22.128V23.152H50.2449V20.176H57.5089V21.52C58.1169 20.88 59.0769 19.856 59.7809 18.832C59.3649 18.352 58.8209 17.84 58.3089 17.456V17.424V18.864H49.1889V15.824H58.3089V16.848L59.7489 15.152C60.1969 15.504 60.9969 15.824 61.4769 16.272C61.7009 15.728 61.6049 15.12 61.7969 14.576H58.5009V11.664H63.1409L63.3649 11.536L63.5889 11.664H63.6209V11.696L64.9969 12.4C64.5809 14.864 63.9729 17.2 63.0769 19.088H67.4609C66.4369 16.976 65.5089 14.192 64.9649 11.312L67.7489 10.736C67.9089 11.504 68.0369 12.272 68.2289 13.008C68.7729 12.464 69.4449 11.728 69.7969 11.312L71.5249 13.36C71.2369 13.584 70.9169 13.808 70.5969 14.032L70.3409 14.224C69.8289 14.576 69.3489 14.896 68.9649 15.152C69.1569 15.664 69.2849 16.08 69.5089 16.528C70.0849 15.952 71.0449 15.312 71.4289 14.8L73.0289 16.88C72.2929 17.424 71.3649 18.064 70.6609 18.544C71.3969 19.536 72.4209 20.432 73.3809 21.04L71.3649 23.792C71.3969 23.824 71.1089 23.664 71.0449 23.536V31.344H67.9089L70.2129 31.92C70.0849 32.304 69.9569 32.752 69.7969 33.168L69.7009 33.488C69.3489 34.48 68.9969 35.504 68.7089 36.176H72.6769ZM57.5729 11.664V14.576H50.4369V11.664H57.5729ZM60.0049 23.408H70.6609C69.7329 22.64 68.8369 21.552 68.2929 20.432V22.064H61.9889V20.88C61.4129 21.776 60.7089 22.672 60.0049 23.408ZM57.5089 24.528V27.44H50.2449V24.528H57.5089ZM62.4689 28.4H67.8449V26.32H62.4689V28.4ZM57.6689 28.976V39.152H50.1809V28.976H57.6689ZM63.1409 36.176H67.4289L65.9889 35.76C66.3409 34.608 66.6929 32.56 66.9169 31.344H63.4609C63.9729 32.592 64.4529 34.544 64.6129 35.632L63.1409 36.176ZM52.9329 36.112H54.8849V32.016H52.9329V36.112Z" fill="#DD4C4C"/>
</g>
<defs>
<filter id="filter0_i_818_1252" x="0" y="0" width="74" height="52" filterUnits="userSpaceOnUse" color-interpolation-filters="sRGB">
<feFlood flood-opacity="0" result="BackgroundImageFix"/>
<feBlend mode="normal" in="SourceGraphic" in2="BackgroundImageFix" result="shape"/>
<feColorMatrix in="SourceAlpha" type="matrix" values="0 0 0 0 0 0 0 0 0 0 0 0 0 0 0 0 0 0 127 0" result="hardAlpha"/>
<feOffset dy="4"/>
<feGaussianBlur stdDeviation="2"/>
<feComposite in2="hardAlpha" operator="arithmetic" k2="-1" k3="1"/>
<feColorMatrix type="matrix" values="0 0 0 0 0 0 0 0 0 0 0 0 0 0 0 0 0 0 0.5 0"/>
<feBlend mode="normal" in2="shape" result="effect1_innerShadow_818_1252"/>
</filter>
<clipPath id="clip0_818_1252">
<rect width="74" height="48" fill="white"/>
</clipPath>
</defs>
</svg>
