<svg width="262" height="260" viewBox="0 0 262 260" fill="none" xmlns="http://www.w3.org/2000/svg">
<g filter="url(#filter0_d_4218_2955)">
<rect width="230" height="230" transform="translate(10 10)" fill="white"/>
<rect x="221" y="221" width="10" height="10" fill="black"/>
<rect x="211" y="221" width="10" height="10" fill="black"/>
<rect x="201" y="221" width="10" height="10" fill="black"/>
<rect x="221" y="211" width="10" height="10" fill="black"/>
<rect x="221" y="201" width="10" height="10" fill="black"/>
<rect x="211" y="211" width="10" height="10" fill="black"/>
<path d="M95 176H97V178H95H93V176H95ZM77 176H79V178H77H75V176H77ZM93 176H91H89H87H85H83H81H79V174V172V170V168V166V164H77H75V162V160V158H77H79H81H83H85V156H87V158H89H91H93H95H97V160V162V164H95H93V166V168V170V172V174V176ZM89 174H91V172H89H87H85H83H81V174H83H85H87H89ZM89 170H91V168H89H87H85H83H81V170H83H85H87H89ZM89 166H91V164H89H87V166H89ZM83 166H85V164H83H81V166H83ZM89 162H91V160H89H87V162H89ZM83 162H85V160H83H81V162H83ZM95 162V160H93V162H95ZM79 162V160H77V162H79ZM120.992 178H118.992H116.992H114.992H112.992H110.992H108.992V176V174V172H106.992H104.992V174H102.992H100.992V172H102.992H104.992V170H106.992H108.992V168H110.992H112.992V166H114.992V168H116.992H118.992H120.992H122.992V170V172V174V176V178H120.992ZM118.992 176H120.992V174V172V170H118.992H116.992H114.992H112.992H110.992V172V174V176H112.992H114.992H116.992H118.992ZM114.992 166V164H116.992V166H114.992ZM112.992 166H110.992V164H112.992V166ZM116.992 164V162H118.992V164H116.992ZM110.992 164H108.992V162H110.992V164ZM104.992 162H106.992V164H104.992H102.992V162H104.992ZM118.992 162V160H116.992H114.992H112.992H110.992H108.992V162H106.992V160H108.992V158H110.992V156H112.992V158H114.992H116.992H118.992H120.992V160V162H118.992ZM126.984 170V168H128.984V170H126.984ZM146.984 176H148.984V178H146.984H144.984H142.984H140.984H138.984H136.984H134.984H132.984H130.984H128.984H126.984V176H128.984H130.984H132.984V174H130.984V172V170V168H132.984H134.984H136.984H138.984H140.984H142.984H144.984V170V172V174H142.984V176H144.984H146.984ZM138.984 176H140.984V174H138.984H136.984H134.984V176H136.984H138.984ZM140.984 172H142.984V170H140.984H138.984H136.984H134.984H132.984V172H134.984H136.984H138.984H140.984ZM146.984 166H148.984V168H146.984H144.984V166H146.984ZM130.984 168H128.984V166H130.984V168ZM144.984 166H142.984H140.984H138.984H136.984H134.984H132.984H130.984V164H132.984V162H134.984V164H136.984H138.984H140.984V162V160H142.984V162V164H144.984V166ZM144.984 164V162H146.984V164H144.984ZM130.984 164H128.984V162H130.984V164ZM146.984 162V160H148.984V162H146.984ZM134.984 162V160V158H132.984H130.984H128.984V156H130.984H132.984H134.984H136.984V158V160V162H134.984ZM128.984 162H126.984V160H128.984V162ZM142.984 160V158H144.984V160H142.984ZM140.984 160H138.984V158V156H140.984V158V160ZM144.984 158V156H146.984V158H144.984ZM172.977 176V174H174.977V176H172.977ZM152.977 174V172V170H154.977V172V174H152.977ZM166.977 178H164.977V176H166.977V174V172V170V168V166H164.977H162.977H160.977V168H162.977H164.977V170H162.977H160.977V168H158.977V170V172V174V176H160.977V178H158.977H156.977H154.977H152.977V176H154.977H156.977V174V172V170V168H154.977H152.977V166H154.977H156.977V164H154.977H152.977V162V160H154.977V162H156.977H158.977H160.977V164H158.977V166H160.977V164H162.977H164.977H166.977H168.977V162H166.977H164.977H162.977V160V158V156H164.977H166.977H168.977H170.977H172.977H174.977V158H172.977V160V162H170.977V164H172.977H174.977V166V168H172.977V170H170.977V168H172.977V166H170.977H168.977V168V170H170.977V172H172.977V174H170.977V172H168.977V174V176V178H166.977ZM160.977 176V174H162.977V176H160.977ZM162.977 174V172H164.977V174H162.977ZM168.977 160H170.977V158H168.977H166.977H164.977V160H166.977H168.977ZM154.977 160V158H156.977V160H154.977ZM158.977 156H160.977V158H158.977H156.977V156H158.977Z" fill="black"/>
<path d="M165.081 100.51V104.122H161.469V107.734H157.857V111.347H154.244V114.959H150.632V118.571H143.408V114.959H139.796V111.347H136.183V107.734H139.796V104.122H143.408V107.734H150.632V104.122H154.244V100.51H157.857V96.8979H161.469V100.51H165.081ZM128.959 89.6735V100.51H125.347V107.734H118.122V111.347H107.286V107.734H100.062V100.51H96.4494V89.6735H100.062V82.4491H107.286V78.8369H118.122V82.4491H125.347V89.6735H128.959ZM139.796 125.795V140.244H136.183V143.856H89.225V140.244H85.6128V125.795H89.225V122.183H92.8372V118.571H96.4494V114.959H103.674V118.571H121.735V114.959H128.959V118.571H132.571V122.183H136.183V125.795H139.796Z" fill="black"/>
<rect x="201" y="201" width="30" height="30" fill="black"/>
<rect x="201" y="181" width="20" height="30" fill="white"/>
<rect x="211" y="201" width="20" height="39" transform="rotate(90 211 201)" fill="white"/>
<rect x="10" width="230" height="10" fill="black"/>
<rect x="10" y="10" width="230" height="10" transform="rotate(90 10 10)" fill="black"/>
<rect x="10" y="240" width="230" height="10" fill="black"/>
<rect x="250" y="10" width="230" height="10" transform="rotate(90 250 10)" fill="black"/>
</g>
<defs>
<filter id="filter0_d_4218_2955" x="0" y="0" width="262" height="260" filterUnits="userSpaceOnUse" color-interpolation-filters="sRGB">
<feFlood flood-opacity="0" result="BackgroundImageFix"/>
<feColorMatrix in="SourceAlpha" type="matrix" values="0 0 0 0 0 0 0 0 0 0 0 0 0 0 0 0 0 0 127 0" result="hardAlpha"/>
<feOffset dx="12" dy="10"/>
<feComposite in2="hardAlpha" operator="out"/>
<feColorMatrix type="matrix" values="0 0 0 0 1 0 0 0 0 0 0 0 0 0 0 0 0 0 0.9 0"/>
<feBlend mode="normal" in2="BackgroundImageFix" result="effect1_dropShadow_4218_2955"/>
<feBlend mode="normal" in="SourceGraphic" in2="effect1_dropShadow_4218_2955" result="shape"/>
</filter>
</defs>
</svg>
