<svg width="262" height="260" viewBox="0 0 262 260" fill="none" xmlns="http://www.w3.org/2000/svg">
<g filter="url(#filter0_d_4218_3270)">
<rect width="230" height="230" transform="translate(10 10)" fill="white"/>
<rect x="221" y="221" width="10" height="10" fill="black"/>
<rect x="211" y="221" width="10" height="10" fill="black"/>
<rect x="201" y="221" width="10" height="10" fill="black"/>
<rect x="221" y="211" width="10" height="10" fill="black"/>
<rect x="221" y="201" width="10" height="10" fill="black"/>
<rect x="211" y="211" width="10" height="10" fill="black"/>
<path d="M95 166H97V168H95H93H91H89H87H85H83H81H79H77H75V166H77H79H81H83V164V162V160V158V156V154V152V150V148V146H85V148V150V152V154H87H89H91H93H95V156H93H91H89H87H85V158V160V162V164V166H87H89H91H93H95ZM110.992 168V166V164H108.992V166H106.992H104.992V168H102.992H100.992V166H102.992H104.992V164H106.992H108.992V162H106.992H104.992H102.992H100.992V160H102.992H104.992H106.992H108.992H110.992V158H112.992V160H114.992H116.992H118.992H120.992H122.992V162H120.992H118.992H116.992V164H118.992V166H120.992H122.992V168H120.992H118.992V166H116.992V164H114.992V162H112.992V164V166V168H110.992ZM100.992 158V156H102.992V158H100.992ZM120.992 158H118.992H116.992H114.992V156V154V152V150V148V146H116.992H118.992H120.992H122.992V148V150V152V154V156V158H120.992ZM118.992 156H120.992V154V152V150V148H118.992H116.992V150V152V154V156H118.992ZM110.992 158H108.992H106.992V156H108.992H110.992V158ZM110.992 156V154V152V150H108.992H106.992V152V154H104.992V156H102.992V154H104.992V152V150H102.992H100.992V148H102.992H104.992V146H106.992V148H108.992H110.992H112.992V150V152V154V156H110.992ZM126.984 168V166V164H128.984V166V168H126.984ZM132.984 164V162V160H134.984V162V164H132.984ZM146.984 168H144.984H142.984V166V164V162V160H140.984V162V164H138.984V166H136.984V168H134.984H132.984V166H134.984H136.984V164H138.984V162V160H136.984V158H134.984H132.984V160H130.984V162V164H128.984V162V160H130.984V158H128.984H126.984V156H128.984H130.984V154V152H128.984H126.984V150H128.984H130.984V148V146H132.984V148V150H134.984V152H132.984V154V156H134.984H136.984V154V152V150V148V146H138.984H140.984H142.984H144.984H146.984H148.984V148V150V152V154V156V158V160H146.984H144.984V162V164V166H146.984V164H148.984V166V168H146.984ZM144.984 158H146.984V156H144.984H142.984H140.984H138.984V158H140.984H142.984H144.984ZM144.984 154H146.984V152H144.984H142.984H140.984H138.984V154H140.984H142.984H144.984ZM144.984 150H146.984V148H144.984H142.984H140.984H138.984V150H140.984H142.984H144.984ZM156.977 168V166H154.977H152.977V164H154.977H156.977V162H154.977H152.977V160V158V156V154V152V150H154.977V148V146H156.977V148H158.977H160.977H162.977V150H160.977V152H162.977V150H164.977V152V154V156V158V160V162H162.977H160.977H158.977V164H160.977H162.977H164.977V166H162.977H160.977H158.977V168H156.977ZM172.977 168H170.977H168.977H166.977V166V164V162V160V158V156V154V152H168.977V150H166.977H164.977V148V146H166.977V148H168.977H170.977H172.977H174.977V150H172.977H170.977V152H172.977H174.977V154V156V158V160V162H172.977H170.977V160H172.977V158V156V154H170.977H168.977V156V158V160V162V164V166H170.977H172.977V164H174.977V166V168H172.977ZM160.977 160H162.977V158H160.977H158.977V160H160.977ZM156.977 160V158H154.977V160H156.977ZM160.977 156H162.977V154H160.977H158.977V156H160.977ZM156.977 156V154H154.977V156H156.977ZM156.977 152H158.977V150H156.977H154.977V152H156.977Z" fill="black"/>
<path d="M153.974 114.802V111.894H151.066V108.986H148.158V106.079H145.251V103.171H142.343V100.263H139.435V97.3548H136.527V94.4469H133.619V91.539H130.711V88.6312H127.803V85.7233H124.895V82.8154H121.987V79.9075H95.8163V82.8154H92.9084V108.986H95.8163V111.894H98.7242V114.802H101.632V117.71H104.54V120.618H107.448V123.526H110.356V126.434H113.264V129.342H116.172V132.25H119.079V135.157H121.987V138.065H124.895V140.973H127.803V143.881H133.619V140.973H136.527V138.065H139.435V135.157H142.343V132.25H145.251V129.342H148.158V126.434H151.066V123.526H153.974V120.618H156.882V114.802H153.974ZM101.632 91.539H104.54V88.6312H110.356V91.539H113.264V97.3548H110.356V100.263H104.54V97.3548H101.632V91.539Z" fill="black"/>
<rect x="201" y="201" width="30" height="30" fill="black"/>
<rect x="201" y="181" width="20" height="30" fill="white"/>
<rect x="211" y="201" width="20" height="39" transform="rotate(90 211 201)" fill="white"/>
<rect x="10" width="230" height="10" fill="black"/>
<rect x="250" y="10" width="230" height="10" transform="rotate(90 250 10)" fill="black"/>
<rect x="10" y="240" width="230" height="10" fill="black"/>
<rect x="10" y="10" width="230" height="10" transform="rotate(90 10 10)" fill="black"/>
</g>
<defs>
<filter id="filter0_d_4218_3270" x="0" y="0" width="262" height="260" filterUnits="userSpaceOnUse" color-interpolation-filters="sRGB">
<feFlood flood-opacity="0" result="BackgroundImageFix"/>
<feColorMatrix in="SourceAlpha" type="matrix" values="0 0 0 0 0 0 0 0 0 0 0 0 0 0 0 0 0 0 127 0" result="hardAlpha"/>
<feOffset dx="12" dy="10"/>
<feComposite in2="hardAlpha" operator="out"/>
<feColorMatrix type="matrix" values="0 0 0 0 1 0 0 0 0 0 0 0 0 0 0 0 0 0 0.9 0"/>
<feBlend mode="normal" in2="BackgroundImageFix" result="effect1_dropShadow_4218_3270"/>
<feBlend mode="normal" in="SourceGraphic" in2="effect1_dropShadow_4218_3270" result="shape"/>
</filter>
</defs>
</svg>
