<svg width="42" height="42" viewBox="0 0 42 42" fill="none" xmlns="http://www.w3.org/2000/svg">
<path d="M18.3333 40.3333V38.6663H16.6663V37.0002H15.0002V35.3333H13.3333V33.6663H11.6663V32.0002H10.0002V30.3333H8.33325V28.6663H6.66626V27.0002H5.00024V25.3333H3.33325V23.6663H1.66626V20.0002H3.33325V18.3333H5.00024V16.6663H8.66626V18.3333H10.3333V20.0002H12.0002V21.6663H13.6663V23.3333H15.3333V25.0002H16.6663V1.66626H25.3333V25.0002H26.6663V23.3333H28.3333V21.6663H30.0002V20.0002H31.6663V18.3333H33.3333V16.6663H37.0002V18.3333H38.6663V20.0002H40.3333V23.6663H38.6663V25.3333H37.0002V27.0002H35.3333V28.6663H33.6663V30.3333H32.0002V32.0002H30.3333V33.6663H28.6663V35.3333H27.0002V37.0002H25.3333V38.6663H23.6663V40.3333H18.3333Z" fill="white" stroke="black" stroke-width="2"/>
</svg>
