<svg width="42" height="42" viewBox="0 0 42 42" fill="none" xmlns="http://www.w3.org/2000/svg">
<path d="M1.66675 18.3333H3.33374V16.6663H4.99976V15.0002H6.66675V13.3333H8.33374V11.6663H9.99976V10.0002H11.6667V8.33325H13.3337V6.66626H14.9998V5.00024H16.6667V3.33325H18.3337V1.66626H21.9998V3.33325H23.6667V5.00024H25.3337V8.66626H23.6667L23.6667 10.3333H21.9998V12.0002H20.3337V13.6663H18.6667V15.3333H16.9998V16.6663H40.3337V25.3333H16.9998V26.6663H18.6667V28.3333H20.3337V30.0002H21.9998V31.6663H23.6667V33.3333H25.3337V37.0002H23.6667V38.6663H21.9998V40.3333H18.3337V38.6663H16.6667V37.0002H14.9998V35.3333H13.3337V33.6663H11.6667V32.0002H9.99976V30.3333H8.33374V28.6663H6.66675V27.0002H4.99976V25.3333H3.33374V23.6663H1.66675L1.66675 18.3333Z" fill="white" stroke="black" stroke-width="2"/>
</svg>
