<svg width="262" height="260" viewBox="0 0 262 260" fill="none" xmlns="http://www.w3.org/2000/svg">
<g filter="url(#filter0_d_4218_3165)">
<rect width="230" height="230" transform="translate(10 10)" fill="white"/>
<rect x="221" y="221" width="10" height="10" fill="black"/>
<rect x="211" y="221" width="10" height="10" fill="black"/>
<rect x="201" y="221" width="10" height="10" fill="black"/>
<rect x="221" y="211" width="10" height="10" fill="black"/>
<rect x="221" y="201" width="10" height="10" fill="black"/>
<rect x="211" y="211" width="10" height="10" fill="black"/>
<path d="M75 170.951V168.951V166.951H77V168.951V170.951H75ZM95 180.951H93H91H89H87H85H83H81H79V178.951V176.951V174.951V172.951V170.951V168.951V166.951H77V164.951V162.951H79V164.951H81H83H85H87H89V166.951V168.951V170.951V172.951H91H93V174.951H91H89V172.951H87H85H83H81V174.951V176.951V178.951H83H85H87H89H91H93H95V176.951H97V178.951V180.951H95ZM93 172.951V170.951V168.951V166.951V164.951V162.951H91H89H87H85H83H81H79V160.951V158.951H81V160.951H83H85H87H89H91H93H95V162.951V164.951V166.951V168.951V170.951V172.951H93ZM85 170.951H87V168.951V166.951H85H83H81V168.951V170.951H83H85ZM120.992 178.951H122.992V180.951H120.992H118.992V178.951H120.992ZM110.992 178.951H112.992V180.951H110.992H108.992H106.992H104.992H102.992V178.951H104.992V176.951H102.992H100.992V174.951H102.992H104.992H106.992V176.951V178.951H108.992H110.992ZM118.992 178.951H116.992H114.992V176.951H116.992H118.992V178.951ZM118.992 176.951V174.951V172.951H116.992H114.992H112.992V174.951H114.992V176.951H112.992V174.951H110.992V172.951H108.992V174.951H106.992V172.951H104.992H102.992H100.992V170.951H102.992V168.951H104.992V166.951H102.992H100.992V164.951H102.992H104.992H106.992H108.992V162.951H106.992H104.992H102.992H100.992V160.951V158.951H102.992V160.951H104.992H106.992H108.992V158.951H110.992V160.951H112.992H114.992H116.992V158.951H118.992V160.951H120.992H122.992V162.951H120.992H118.992V164.951V166.951H120.992H122.992V168.951H120.992H118.992H116.992H114.992H112.992V166.951H114.992H116.992V164.951V162.951H114.992H112.992H110.992V164.951V166.951V168.951V170.951H112.992H114.992H116.992H118.992H120.992H122.992V172.951H120.992V174.951V176.951H118.992ZM106.992 170.951H108.992V168.951V166.951H106.992V168.951H104.992V170.951H106.992ZM146.984 166.951V164.951V162.951H144.984H142.984H140.984H138.984H136.984H134.984H132.984H130.984H128.984V164.951V166.951H126.984V164.951V162.951V160.951H128.984H130.984H132.984H134.984H136.984V158.951H138.984V160.951H140.984H142.984H144.984H146.984H148.984V162.951V164.951V166.951H146.984ZM146.984 178.951H148.984V180.951H146.984H144.984H142.984H140.984H138.984H136.984H134.984H132.984H130.984H128.984H126.984V178.951H128.984H130.984H132.984H134.984H136.984H138.984H140.984H142.984H144.984H146.984ZM142.984 176.951H140.984H138.984H136.984H134.984H132.984H130.984V174.951V172.951V170.951V168.951V166.951V164.951H132.984H134.984H136.984H138.984H140.984H142.984H144.984V166.951V168.951V170.951V172.951V174.951V176.951H142.984ZM140.984 174.951H142.984V172.951V170.951H140.984H138.984H136.984H134.984H132.984V172.951V174.951H134.984H136.984H138.984H140.984ZM140.984 168.951H142.984V166.951H140.984H138.984H136.984H134.984H132.984V168.951H134.984H136.984H138.984H140.984ZM158.977 180.951V178.951H160.977V180.951H158.977ZM154.977 166.951V164.951H156.977V166.951H154.977ZM156.977 162.951V160.951H158.977V162.951H156.977ZM168.977 180.951H166.977H164.977V178.951H166.977H168.977V176.951V174.951H166.977H164.977H162.977H160.977H158.977H156.977H154.977H152.977V172.951H154.977H156.977V170.951H154.977H152.977V168.951H154.977H156.977H158.977V170.951V172.951H160.977V170.951V168.951V166.951V164.951H162.977H164.977V162.951H162.977H160.977V160.951H162.977V158.951H164.977V160.951H166.977H168.977V158.951H170.977V160.951H172.977H174.977V162.951H172.977H170.977H168.977H166.977V164.951H168.977H170.977H172.977V166.951V168.951V170.951V172.951H174.977V174.951H172.977H170.977V176.951V178.951V180.951H168.977ZM158.977 178.951H156.977V176.951H158.977V178.951ZM168.977 172.951H170.977V170.951H168.977H166.977H164.977H162.977V172.951H164.977H166.977H168.977ZM168.977 168.951H170.977V166.951H168.977H166.977H164.977H162.977V168.951H164.977H166.977H168.977ZM154.977 164.951H152.977V162.951H154.977V164.951ZM156.977 160.951H154.977V158.951H156.977V160.951Z" fill="black"/>
<path d="M92.8685 132.59H96.4914V136.213H92.8685V143.459H85.6226V132.59H89.2455V128.967H92.8685V132.59ZM96.4914 89.1145H92.8685V81.8686H96.4914V78.2456H103.737V81.8686H107.36V89.1145H103.737V92.7375H96.4914V89.1145ZM165.328 132.59V143.459H158.082V136.213H154.459V132.59H158.082V128.967H161.705V132.59H165.328Z" fill="black"/>
<path d="M154.459 128.967H150.836V143.458H147.213V147.081H143.59V143.458H139.967V132.59H143.59V121.721H147.213V114.475H143.59V118.098H139.967V121.721H110.983V118.098H107.36V114.475H103.737V121.721H107.36V132.59H110.983V143.458H107.36V147.081H103.737V143.458H100.114V128.967H96.4915V125.344H92.8686V121.721H89.2456V110.852H92.8686V99.9829H96.4915V96.3599H103.737V99.9829H107.36V107.229H110.983V110.852H114.606V96.3599H136.344V110.852H139.967V107.229H143.59V99.9829H147.213V96.3599H154.459V99.9829H158.082V110.852H161.705V121.721H158.082V125.344H154.459V128.967ZM147.213 89.114H143.59V81.8681H147.213V78.2451H154.459V81.8681H158.082V89.114H154.459V92.737H147.213V89.114Z" fill="black"/>
<rect x="201" y="201" width="30" height="30" fill="black"/>
<rect x="201" y="181" width="20" height="30" fill="white"/>
<rect x="211" y="201" width="20" height="39" transform="rotate(90 211 201)" fill="white"/>
<rect x="10" width="230" height="10" fill="black"/>
<rect x="250" y="10" width="230" height="10" transform="rotate(90 250 10)" fill="black"/>
<rect x="10" y="240" width="230" height="10" fill="black"/>
<rect x="10" y="10" width="230" height="10" transform="rotate(90 10 10)" fill="black"/>
</g>
<defs>
<filter id="filter0_d_4218_3165" x="0" y="0" width="262" height="260" filterUnits="userSpaceOnUse" color-interpolation-filters="sRGB">
<feFlood flood-opacity="0" result="BackgroundImageFix"/>
<feColorMatrix in="SourceAlpha" type="matrix" values="0 0 0 0 0 0 0 0 0 0 0 0 0 0 0 0 0 0 127 0" result="hardAlpha"/>
<feOffset dx="12" dy="10"/>
<feComposite in2="hardAlpha" operator="out"/>
<feColorMatrix type="matrix" values="0 0 0 0 1 0 0 0 0 0 0 0 0 0 0 0 0 0 0.9 0"/>
<feBlend mode="normal" in2="BackgroundImageFix" result="effect1_dropShadow_4218_3165"/>
<feBlend mode="normal" in="SourceGraphic" in2="effect1_dropShadow_4218_3165" result="shape"/>
</filter>
</defs>
</svg>
