<svg width="262" height="260" viewBox="0 0 262 260" fill="none" xmlns="http://www.w3.org/2000/svg">
<g filter="url(#filter0_d_4218_3270)">
<rect width="230" height="230" transform="translate(10 10)" fill="white"/>
<rect x="221" y="221" width="10" height="10" fill="black"/>
<rect x="211" y="221" width="10" height="10" fill="black"/>
<rect x="201" y="221" width="10" height="10" fill="black"/>
<rect x="221" y="211" width="10" height="10" fill="black"/>
<rect x="221" y="201" width="10" height="10" fill="black"/>
<rect x="211" y="211" width="10" height="10" fill="black"/>
<path d="M49 169.79V167.79V165.79V163.79V161.79V159.79V157.79V155.79H51H53H55V153.79V151.79H53H51H49V149.79H51H53H55H57H59V147.79H61V149.79H63H65H67H69H71V151.79H69H67H65V153.79V155.79H67H69H71V157.79V159.79V161.79V163.79V165.79V167.79V169.79H69H67V167.79H69V165.79V163.79H67H65V165.79V167.79V169.79H63H61H59H57H55V167.79V165.79V163.79V161.79H53V159.79H55V157.79H53H51V159.79V161.79H53V163.79H51V165.79V167.79V169.79H49ZM61 167.79H63V165.79V163.79H61H59H57V165.79V167.79H59H61ZM67 161.79H69V159.79V157.79H67H65V159.79V161.79H67ZM61 161.79H63V159.79V157.79H61H59H57V159.79H55V161.79H57H59H61ZM61 155.79H63V153.79V151.79H61H59H57V153.79V155.79H59H61ZM94.9922 169.79H92.9922H90.9922H88.9922H86.9922V167.79V165.79V163.79V161.79V159.79H88.9922H90.9922H92.9922H94.9922H96.9922V161.79V163.79V165.79V167.79V169.79H94.9922ZM92.9922 167.79H94.9922V165.79V163.79V161.79H92.9922H90.9922H88.9922V163.79V165.79V167.79H90.9922H92.9922ZM82.9922 169.79H80.9922H78.9922H76.9922H74.9922V167.79V165.79V163.79V161.79V159.79H76.9922H78.9922H80.9922H82.9922H84.9922V161.79V163.79V165.79V167.79V169.79H82.9922ZM80.9922 167.79H82.9922V165.79V163.79V161.79H80.9922H78.9922H76.9922V163.79V165.79V167.79H78.9922H80.9922ZM90.9922 157.79H88.9922H86.9922H84.9922H82.9922H80.9922H78.9922V155.79V153.79V151.79V149.79V147.79H80.9922H82.9922H84.9922H86.9922H88.9922H90.9922H92.9922V149.79V151.79V153.79V155.79V157.79H90.9922ZM88.9922 155.79H90.9922V153.79V151.79V149.79H88.9922H86.9922H84.9922H82.9922H80.9922V151.79V153.79V155.79H82.9922H84.9922H86.9922H88.9922ZM120.984 169.79V167.79H122.984V169.79H120.984ZM100.984 169.79V167.79V165.79H102.984V167.79V169.79H100.984ZM120.984 151.79V149.79H122.984V151.79H120.984ZM108.984 169.79H106.984V167.79V165.79V163.79V161.79H104.984V163.79V165.79H102.984V163.79V161.79H100.984V159.79H102.984H104.984H106.984V157.79V155.79H104.984H102.984H100.984V153.79V151.79V149.79V147.79H102.984V149.79V151.79V153.79H104.984H106.984V151.79V149.79V147.79H108.984V149.79V151.79V153.79H110.984H112.984H114.984V151.79V149.79V147.79H116.984V149.79V151.79V153.79H118.984H120.984H122.984V155.79H120.984H118.984H116.984V157.79V159.79V161.79H118.984V163.79V165.79H120.984V167.79H118.984V165.79H116.984V163.79V161.79H114.984V163.79V165.79H112.984V167.79H110.984V165.79H112.984V163.79V161.79H114.984V159.79V157.79V155.79H112.984H110.984H108.984V157.79V159.79V161.79V163.79V165.79V167.79H110.984V169.79H108.984ZM120.984 149.79H118.984V147.79H120.984V149.79ZM146.977 169.79V167.79H148.977V169.79H146.977ZM126.977 169.79V167.79H128.977V169.79H126.977ZM138.977 165.79V163.79V161.79V159.79V157.79V155.79V153.79V151.79V149.79V147.79H140.977V149.79H142.977H144.977V151.79H142.977H140.977V153.79H142.977H144.977H146.977V151.79H148.977V153.79V155.79H146.977H144.977H142.977H140.977V157.79H142.977H144.977H146.977H148.977V159.79H146.977H144.977H142.977H140.977V161.79H142.977H144.977H146.977H148.977V163.79H146.977H144.977H142.977H140.977V165.79H138.977ZM126.977 163.79V161.79V159.79V157.79V155.79V153.79V151.79V149.79H128.977V151.79H130.977H132.977H134.977V149.79H136.977V151.79V153.79V155.79V157.79V159.79V161.79V163.79H134.977V165.79V167.79H136.977H138.977H140.977H142.977H144.977V169.79H142.977H140.977H138.977H136.977H134.977V167.79H132.977V165.79V163.79H134.977V161.79H132.977H130.977H128.977V163.79H126.977ZM146.977 167.79H144.977V165.79H146.977V167.79ZM128.977 167.79V165.79H130.977V167.79H128.977ZM132.977 159.79H134.977V157.79H132.977H130.977H128.977V159.79H130.977H132.977ZM132.977 155.79H134.977V153.79H132.977H130.977H128.977V155.79H130.977H132.977ZM146.977 147.79H148.977V149.79H146.977H144.977V147.79H146.977ZM128.977 149.79V147.79H130.977V149.79H128.977ZM172.969 169.79V167.79H174.969V169.79H172.969ZM160.969 169.79V167.79H162.969V169.79H160.969ZM156.969 169.79V167.79V165.79V163.79V161.79H154.969V163.79V165.79H152.969V163.79V161.79H154.969V159.79V157.79H156.969V155.79V153.79H154.969H152.969V151.79H154.969H156.969V149.79V147.79H158.969V149.79V151.79H160.969H162.969H164.969V149.79H162.969H160.969V147.79H162.969H164.969H166.969H168.969H170.969H172.969H174.969V149.79H172.969H170.969V151.79H172.969H174.969V153.79V155.79V157.79H172.969H170.969H168.969H166.969H164.969H162.969H160.969V155.79V153.79H158.969V155.79V157.79V159.79V161.79V163.79V165.79V167.79V169.79H156.969ZM166.969 169.79H164.969V167.79H162.969V165.79H160.969V163.79H162.969H164.969H166.969H168.969H170.969H172.969H174.969V165.79H172.969V167.79H170.969V165.79H168.969V167.79V169.79H166.969ZM166.969 167.79V165.79H164.969V167.79H166.969ZM172.969 159.79H174.969V161.79H172.969H170.969H168.969H166.969H164.969H162.969H160.969V159.79H162.969H164.969H166.969H168.969H170.969H172.969ZM172.969 155.79V153.79H170.969V155.79H172.969ZM168.969 155.79V153.79H166.969V155.79H168.969ZM164.969 155.79V153.79H162.969V155.79H164.969ZM168.969 151.79V149.79H166.969V151.79H168.969ZM198.961 167.79V165.79H200.961V167.79H198.961ZM178.961 167.79V165.79H180.961V167.79H178.961ZM188.961 169.79H186.961V167.79H188.961V165.79V163.79V161.79V159.79V157.79H186.961H184.961H182.961H180.961H178.961V155.79H180.961H182.961H184.961H186.961H188.961H190.961H192.961H194.961H196.961H198.961H200.961V157.79H198.961H196.961H194.961H192.961H190.961V159.79V161.79V163.79V165.79V167.79V169.79H188.961ZM198.961 165.79H196.961V163.79H198.961V165.79ZM180.961 165.79V163.79H182.961V165.79H180.961ZM196.961 163.79H194.961V161.79H196.961V163.79ZM182.961 163.79V161.79H184.961V163.79H182.961ZM196.961 147.79H198.961V149.79H196.961H194.961H192.961H190.961H188.961H186.961H184.961H182.961H180.961V147.79H182.961H184.961H186.961H188.961H190.961H192.961H194.961H196.961Z" fill="black"/>
<path d="M153.974 114.802V111.894H151.066V108.986H148.158V106.079H145.251V103.171H142.343V100.263H139.435V97.3548H136.527V94.4469H133.619V91.539H130.711V88.6312H127.803V85.7233H124.895V82.8154H121.987V79.9075H95.8163V82.8154H92.9084V108.986H95.8163V111.894H98.7242V114.802H101.632V117.71H104.54V120.618H107.448V123.526H110.356V126.434H113.264V129.342H116.172V132.25H119.079V135.157H121.987V138.065H124.895V140.973H127.803V143.881H133.619V140.973H136.527V138.065H139.435V135.157H142.343V132.25H145.251V129.342H148.158V126.434H151.066V123.526H153.974V120.618H156.882V114.802H153.974ZM101.632 91.539H104.54V88.6312H110.356V91.539H113.264V97.3548H110.356V100.263H104.54V97.3548H101.632V91.539Z" fill="black"/>
<rect x="201" y="201" width="30" height="30" fill="black"/>
<rect x="201" y="181" width="20" height="30" fill="white"/>
<rect x="211" y="201" width="20" height="39" transform="rotate(90 211 201)" fill="white"/>
<rect x="10" width="230" height="10" fill="black"/>
<rect x="250" y="10" width="230" height="10" transform="rotate(90 250 10)" fill="black"/>
<rect x="10" y="240" width="230" height="10" fill="black"/>
<rect x="10" y="10" width="230" height="10" transform="rotate(90 10 10)" fill="black"/>
</g>
<defs>
<filter id="filter0_d_4218_3270" x="0" y="0" width="262" height="260" filterUnits="userSpaceOnUse" color-interpolation-filters="sRGB">
<feFlood flood-opacity="0" result="BackgroundImageFix"/>
<feColorMatrix in="SourceAlpha" type="matrix" values="0 0 0 0 0 0 0 0 0 0 0 0 0 0 0 0 0 0 127 0" result="hardAlpha"/>
<feOffset dx="12" dy="10"/>
<feComposite in2="hardAlpha" operator="out"/>
<feColorMatrix type="matrix" values="0 0 0 0 1 0 0 0 0 0 0 0 0 0 0 0 0 0 0.9 0"/>
<feBlend mode="normal" in2="BackgroundImageFix" result="effect1_dropShadow_4218_3270"/>
<feBlend mode="normal" in="SourceGraphic" in2="effect1_dropShadow_4218_3270" result="shape"/>
</filter>
</defs>
</svg>
