<svg width="262" height="260" viewBox="0 0 262 260" fill="none" xmlns="http://www.w3.org/2000/svg">
<g filter="url(#filter0_d_4218_3060)">
<rect width="230" height="230" transform="translate(10 10)" fill="white"/>
<rect x="221" y="221" width="10" height="10" fill="black"/>
<rect x="211" y="221" width="10" height="10" fill="black"/>
<rect x="201" y="221" width="10" height="10" fill="black"/>
<rect x="221" y="211" width="10" height="10" fill="black"/>
<rect x="221" y="201" width="10" height="10" fill="black"/>
<rect x="211" y="211" width="10" height="10" fill="black"/>
<path d="M72 178.66V176.66V174.66V172.66H70V174.66H68V176.66H66V178.66H64H62V176.66H64H66V174.66H68V172.66H66H64V170.66V168.66V166.66H66H68H70H72V164.66H70H68H66H64V162.66H62V160.66H64V158.66V156.66H66V158.66H68H70H72V160.66H70V162.66H72V160.66H74V158.66V156.66H76V158.66H78H80H82H84V160.66H82H80V162.66H82V164.66V166.66V168.66H80H78H76H74V170.66H76H78H80H82H84V172.66V174.66V176.66H82V178.66H80H78V176.66H80H82V174.66V172.66H80H78H76H74V174.66V176.66V178.66H72ZM70 170.66H72V168.66H70H68H66V170.66H68H70ZM78 166.66H80V164.66H78H76H74V166.66H76H78ZM76 162.66H78V160.66H76H74V162.66H76ZM66 162.66H68V160.66H66H64V162.66H66ZM107.992 176.66H109.992V178.66H107.992H105.992H103.992H101.992H99.9922H97.9922H95.9922H93.9922H91.9922H89.9922H87.9922V176.66H89.9922H91.9922H93.9922H95.9922H97.9922H99.9922H101.992H103.992H105.992H107.992ZM103.992 166.66H105.992V168.66H103.992H101.992H99.9922H97.9922H95.9922H93.9922H91.9922V166.66H93.9922H95.9922H97.9922H99.9922H101.992H103.992ZM105.992 158.66H107.992V160.66H105.992H103.992H101.992H99.9922H97.9922H95.9922H93.9922H91.9922H89.9922V158.66H91.9922H93.9922H95.9922H97.9922H99.9922H101.992H103.992H105.992ZM117.984 176.66V174.66V172.66H119.984V174.66V176.66H117.984ZM127.984 176.66H129.984V178.66H127.984H125.984H123.984V176.66H125.984H127.984ZM129.984 176.66V174.66H131.984V176.66H129.984ZM131.984 174.66V172.66V170.66V168.66V166.66H129.984H127.984H125.984H123.984V168.66H121.984V170.66V172.66H119.984V170.66V168.66H121.984V166.66V164.66V162.66V160.66H119.984H117.984H115.984H113.984V158.66H115.984H117.984H119.984H121.984H123.984V156.66H125.984V158.66H127.984H129.984H131.984H133.984H135.984V160.66H133.984H131.984H129.984H127.984H125.984H123.984V162.66V164.66H125.984H127.984H129.984H131.984H133.984V166.66V168.66V170.66V172.66V174.66H131.984ZM159.977 176.66H161.977V178.66H159.977H157.977V176.66H159.977ZM143.977 176.66H145.977V178.66H143.977H141.977H139.977V176.66H141.977H143.977ZM157.977 176.66H155.977H153.977V174.66H155.977H157.977V176.66ZM147.977 174.66H149.977V176.66H147.977H145.977V174.66H147.977ZM153.977 174.66H151.977H149.977V172.66H151.977H153.977V174.66ZM153.977 172.66V170.66H155.977V172.66H153.977ZM149.977 172.66H147.977V170.66H149.977V172.66ZM155.977 170.66V168.66V166.66H153.977H151.977H149.977H147.977H145.977H143.977V164.66H145.977H147.977H149.977V162.66V160.66H147.977H145.977H143.977H141.977H139.977V158.66H141.977H143.977H145.977H147.977H149.977V156.66H151.977V158.66H153.977H155.977H157.977H159.977H161.977V160.66H159.977H157.977H155.977H153.977H151.977V162.66V164.66H153.977H155.977H157.977V166.66V168.66V170.66H155.977ZM147.977 170.66H145.977V168.66H147.977V170.66ZM167.969 178.66V176.66V174.66V172.66V170.66V168.66V166.66H165.969V164.66H167.969V162.66V160.66H169.969V162.66V164.66V166.66V168.66V170.66V172.66V174.66V176.66V178.66H167.969ZM177.969 170.66V168.66H179.969V170.66H177.969ZM183.969 178.66H181.969H179.969V176.66H181.969H183.969V174.66V172.66V170.66V168.66V166.66V164.66V162.66H181.969H179.969H177.969H175.969H173.969V160.66H175.969H177.969H179.969H181.969H183.969V158.66V156.66H185.969V158.66V160.66H187.969V162.66H185.969V164.66V166.66V168.66V170.66V172.66V174.66V176.66V178.66H183.969ZM177.969 168.66H175.969V166.66H177.969V168.66ZM169.969 160.66V158.66V156.66H171.969V158.66V160.66H169.969Z" fill="black"/>
<path d="M115.707 117.32V120.972H126.664V131.93H119.359V135.586H115.707V131.934H112.054V128.281H123.012V124.629H112.054V113.667H119.359V110.015H123.012V113.667H126.664V117.32H115.707Z" fill="black"/>
<path d="M148.587 113.667V106.362H144.934V102.702H141.282V99.0497H137.629V95.3972H101.089V99.0497H97.4368V102.702H93.7843V106.355H90.1318V113.66H86.4792V135.582H90.1318V142.887H93.7843V146.54H97.4368V150.192H101.089V153.848H137.625V150.196H141.278V146.543H144.93V142.891H148.583V135.582H152.239V113.663L148.587 113.667ZM112.054 106.362V102.702H126.664V106.355H133.973V113.66H137.625V131.93H133.973V139.235H126.668V142.887H112.054V139.235H104.749V131.93H101.089V113.663H104.742V106.358L112.054 106.362ZM144.934 91.7447H141.282V95.3972H144.934V91.7447ZM152.239 95.3972H144.934V99.0497H152.239V95.3972ZM155.892 99.0497H152.239V102.702H155.892V99.0497ZM159.548 88.0922V99.0497H155.892L155.895 91.7447H152.239V88.0922H159.548ZM152.239 84.436H141.282V88.0886L152.239 88.0922V84.436ZM141.278 88.0922H137.625V91.7447H141.282L141.278 88.0922ZM133.973 88.0922H104.742V91.7447H133.969L133.973 88.0922ZM141.282 73.4785V77.131H137.629V80.7835H133.973V84.436H104.745V80.7835H101.093V77.131H97.4404V73.4785H104.745V77.131H115.703V73.4785H123.012V77.131H133.973V73.4785H141.282Z" fill="black"/>
<rect x="201" y="201" width="30" height="30" fill="black"/>
<rect x="201" y="181" width="20" height="30" fill="white"/>
<rect x="211" y="201" width="20" height="39" transform="rotate(90 211 201)" fill="white"/>
<rect x="10" width="230" height="10" fill="black"/>
<rect x="250" y="10" width="230" height="10" transform="rotate(90 250 10)" fill="black"/>
<rect x="10" y="240" width="230" height="10" fill="black"/>
<rect x="10" y="10" width="230" height="10" transform="rotate(90 10 10)" fill="black"/>
</g>
<defs>
<filter id="filter0_d_4218_3060" x="0" y="0" width="262" height="260" filterUnits="userSpaceOnUse" color-interpolation-filters="sRGB">
<feFlood flood-opacity="0" result="BackgroundImageFix"/>
<feColorMatrix in="SourceAlpha" type="matrix" values="0 0 0 0 0 0 0 0 0 0 0 0 0 0 0 0 0 0 127 0" result="hardAlpha"/>
<feOffset dx="12" dy="10"/>
<feComposite in2="hardAlpha" operator="out"/>
<feColorMatrix type="matrix" values="0 0 0 0 1 0 0 0 0 0 0 0 0 0 0 0 0 0 0.9 0"/>
<feBlend mode="normal" in2="BackgroundImageFix" result="effect1_dropShadow_4218_3060"/>
<feBlend mode="normal" in="SourceGraphic" in2="effect1_dropShadow_4218_3060" result="shape"/>
</filter>
</defs>
</svg>
